<svg width="250" height="250" viewBox="0 0 250 250" fill="none" xmlns="http://www.w3.org/2000/svg">
<g clip-path="url(#clip0_16_46)">
<path d="M241.121 35.67C237.086 31.9508 231.807 29.9043 226.339 29.94H178.036C176.335 29.9054 174.681 29.3752 173.272 28.4134C171.864 27.4516 170.762 26.0994 170.099 24.52C163.69 10.25 146.706 0 126.756 0C106.806 0 89.7817 10.25 83.4226 24.52C82.7601 26.0994 81.6581 27.4516 80.2498 28.4134C78.8414 29.3752 77.1869 29.9054 75.4861 29.94H23.6508C18.1819 29.9071 12.9025 31.9572 8.86903 35.68C6.35029 38.0597 4.34952 40.9409 2.99355 44.1411C1.63759 47.3412 0.956017 50.7904 0.992046 54.27V225.18C0.90832 231.015 2.75483 236.711 6.24006 241.37C8.21735 244.028 10.7772 246.19 13.7197 247.687C16.6624 249.184 19.9083 249.976 23.2043 250H226.349C231.82 250.037 237.103 247.982 241.131 244.25C243.649 241.871 245.649 238.992 247.004 235.794C248.36 232.595 249.043 229.148 249.008 225.67V54.27C249.044 50.788 248.362 47.3364 247.004 44.1344C245.646 40.9324 243.643 38.05 241.121 35.67ZM126.756 9.73C141.558 9.73 154.365 16.11 160.317 25.32C161.964 27.87 160.992 29.94 158.145 29.94H95.3571C93.1944 29.94 91.9345 27.26 93.1845 25.32C99.1369 16.11 111.944 9.73 126.756 9.73ZM240.079 225.67C240.105 227.782 239.688 229.877 238.856 231.815C238.023 233.754 236.794 235.493 235.248 236.92C232.81 239.112 229.646 240.307 226.379 240.27H23.5119C20.6043 240.302 17.7704 239.348 15.4663 237.56C13.7074 236.132 12.2941 234.32 11.3333 232.26C10.3724 230.2 9.88937 227.946 9.92062 225.67V159.93V159.87H101.806H101.855C103.839 168.87 111.22 175.47 120.01 175.47H133.472C142.262 175.47 149.623 168.82 151.637 159.87H240.079C240.079 159.87 240.079 159.87 240.079 159.93V225.67ZM120.04 144.23H133.502C139.226 144.23 143.819 149.61 143.304 155.99C143.131 158.603 141.995 161.057 140.119 162.868C138.243 164.68 135.762 165.718 133.165 165.78H120.357C117.762 165.721 115.283 164.684 113.408 162.874C111.533 161.063 110.399 158.611 110.228 156C109.702 149.61 114.296 144.23 120.04 144.23ZM240.079 140.4C240.079 145.78 236.111 150.14 231.2 150.14H151.686C149.702 141.14 142.311 134.53 133.522 134.53H120.04C111.25 134.53 103.889 141.18 101.885 150.14H101.835H18.7599C13.8889 150.14 9.92062 145.78 9.92062 140.4V54.27C9.89293 51.9914 10.3806 49.7364 11.3467 47.6763C12.3128 45.6161 13.7317 43.8048 15.496 42.38C17.8002 40.5922 20.6341 39.6377 23.5416 39.67H226.498C229.403 39.6352 232.234 40.5902 234.534 42.38C236.293 43.8078 237.706 45.6204 238.667 47.6804C239.628 49.7404 240.111 51.9939 240.079 54.27V140.4Z" fill="black"/>
</g>
<defs>
<clipPath id="clip0_16_46">
<rect width="250" height="250" fill="white"/>
</clipPath>
</defs>
</svg>
