<svg width="30" height="30" viewBox="0 0 30 30" fill="none" xmlns="http://www.w3.org/2000/svg">
<path d="M13.9581 0.0195153C10.7892 0.249241 7.85909 1.43156 5.38521 3.47153C4.93207 3.84522 3.85434 4.9234 3.48081 5.37672C1.84584 7.35849 0.786482 9.57918 0.290481 12.0541C-0.502508 16.0054 0.345592 20.1649 2.62046 23.4699C3.46856 24.7043 4.54323 25.853 5.73731 26.7994C7.81928 28.4504 10.4309 29.5439 13.0855 29.8778C17.2923 30.4107 21.4318 29.1886 24.6894 26.4533C25.0568 26.1439 25.8988 25.3169 26.2479 24.9187C29.3555 21.384 30.6261 16.6547 29.7076 12.0541C29.2116 9.55161 28.1216 7.29723 26.4377 5.28483C26.104 4.88664 25.2559 4.03206 24.8119 3.64612C22.4666 1.61534 19.659 0.399329 16.5299 0.0623975C15.9972 0.00420022 14.4969 -0.0203039 13.9581 0.0195153ZM15.9023 1.51733C17.7179 1.6521 19.3222 2.08092 20.9235 2.86505C24.5088 4.62016 27.148 7.88533 28.1002 11.7478C28.3421 12.7188 28.4615 13.604 28.4921 14.6423C28.587 17.9351 27.4603 21.1298 25.2895 23.7089C25.0507 23.9906 24.1291 24.9494 24.0924 24.9494C24.0832 24.9494 24.0434 24.8085 24.0036 24.6339C23.526 22.4745 21.9982 20.4927 20.0478 19.4972C19.3528 19.1419 18.6303 18.9091 17.9077 18.808C17.4362 18.7406 12.5619 18.7406 12.0965 18.808C9.90432 19.1205 7.92032 20.5417 6.7538 22.6368C6.42926 23.2188 6.14145 23.9723 5.99449 24.6369C5.95469 24.8085 5.91489 24.9494 5.9057 24.9494C5.86284 24.9494 4.92595 23.9661 4.64733 23.6323C3.9217 22.7593 3.37977 21.9262 2.87765 20.9062C0.339469 15.7573 1.36515 9.5608 5.43113 5.48393C7.75805 3.14685 10.7616 1.76543 14.0346 1.52039C14.5306 1.48364 15.4124 1.48364 15.9023 1.51733Z" fill="#EEEEEE"/>
<path d="M14.3561 6.75815C13.0824 6.92049 11.8822 7.55453 11.0647 8.49181C9.40527 10.3878 9.29504 13.1415 10.7953 15.1385C11.573 16.1738 12.6691 16.8661 13.9734 17.1448C14.2704 17.2061 14.3928 17.2153 14.9991 17.2153C15.5992 17.2153 15.7308 17.2061 16.0217 17.1448C17.4821 16.8355 18.7007 15.987 19.4753 14.7434C20.5469 13.0189 20.5102 10.7646 19.3804 9.07685C18.5231 7.79344 17.2096 6.96949 15.7033 6.76734C15.3542 6.72139 14.6745 6.71526 14.3561 6.75815Z" fill="#EEEEEE"/>
</svg>
