<svg width="47" height="40" viewBox="0 0 47 40" fill="none" xmlns="http://www.w3.org/2000/svg">
<path d="M40.3663 5.35149L34.7071 8.31645L7.37934 22.6305C7.28692 21.9057 7.24037 21.1755 7.24015 20.4445C7.24387 17.528 7.98842 14.6629 9.40023 12.1334C10.812 9.60372 12.842 7.49731 15.2889 6.0227C17.7359 4.54809 20.5152 3.75648 23.3512 3.72626C26.1872 3.69604 28.9817 4.4283 31.4579 5.85043L34.6972 4.1532L35.1804 3.89961C32.2131 1.6848 28.708 0.35683 25.0526 0.0624331C21.3972 -0.231964 17.7338 0.518705 14.4673 2.23145C11.2008 3.9442 8.45842 6.55235 6.54328 9.76762C4.6281 12.9829 3.6147 16.6801 3.61508 20.4506C3.61508 20.9714 3.6343 21.4901 3.67274 22.0068C3.72659 22.7384 3.56879 23.4702 3.21921 24.1098C2.86962 24.7495 2.34388 25.2685 1.70811 25.6016L0 26.4973V30.6748L5.0289 28.0391L6.65751 27.1844L8.26217 26.3439L37.0715 11.2488L40.3087 9.55359L47 6.0467V1.87112L40.3663 5.35149Z" fill="black"/>
<path d="M47 9.3252L9.8987 28.7568L6.66146 30.4565L0 33.9481V38.1228L6.6157 34.6558L12.2749 31.6899L39.6306 17.3515C39.7231 18.0812 39.7696 18.8164 39.7698 19.5523C39.7681 22.4731 39.0237 25.3427 37.6105 27.876C36.1973 30.4094 34.1646 32.5186 31.7142 33.9941C29.2636 35.4696 26.4804 36.2601 23.6411 36.2872C20.8018 36.3143 18.0048 35.577 15.5282 34.1485L15.3292 34.2569L11.8176 36.0978C14.7843 38.3133 18.2886 39.6421 21.9435 39.9373C25.5983 40.2325 29.2613 39.4825 32.5278 37.7705C35.7943 36.0584 38.5371 33.4508 40.4531 30.2358C42.369 27.0207 43.3837 23.3234 43.385 19.5523C43.385 19.0266 43.3651 18.501 43.3272 17.9814C43.2734 17.2498 43.4312 16.5182 43.7803 15.8784C44.1295 15.2386 44.6546 14.7193 45.2899 14.3855L47 13.4897V9.3252Z" fill="black"/>
</svg>
