<svg width="250" height="250" viewBox="0 0 250 250" fill="none" xmlns="http://www.w3.org/2000/svg">
<path d="M194.262 127.392C194.955 128.033 195.866 128.386 196.81 128.376C197.379 128.377 197.941 128.247 198.451 127.994C198.961 127.742 199.405 127.375 199.749 126.922C200.094 126.47 200.328 125.943 200.434 125.384C200.54 124.825 200.516 124.249 200.362 123.701C192.225 95.7972 178.529 71.4369 159.647 51.2795C155.332 46.5824 150.783 42.105 146.019 37.8641L146.442 37.2342C147.508 35.6285 148.244 33.8273 148.608 31.9349C148.973 30.0426 148.959 28.0966 148.566 26.2098C148.173 24.323 147.41 22.5329 146.321 20.9432C145.232 19.3536 143.839 17.9958 142.22 16.9487L141.424 16.4271C138.209 14.3436 134.316 13.577 130.552 14.2862C126.787 14.9952 123.441 17.1257 121.204 20.2362C114.469 16.4835 107.439 13.284 100.186 10.6692C68.0998 -0.895722 37.8335 1.17121 18.0955 4.92121C17.3213 5.0612 16.6129 5.44767 16.0761 6.02303C15.5393 6.59838 15.2027 7.33184 15.1164 8.11411C15.0301 8.89639 15.1988 9.68562 15.5974 10.3642C15.9959 11.0427 16.6029 11.5744 17.328 11.8799C45.4479 23.9101 72.6254 38.0344 98.6319 54.1338L4.13322 196.093C3.11032 197.636 2.42771 199.379 2.13081 201.207C1.83391 203.034 1.92953 204.905 2.41131 206.693C3.37685 210.347 5.67625 213.508 8.85619 215.551L9.65319 216.073C12.1756 217.721 15.1217 218.603 18.1349 218.612C20.3888 218.653 22.6176 218.134 24.6228 217.103C26.628 216.073 28.3473 214.563 29.6274 212.707L124.087 70.7775C148.847 87.8847 172.304 106.808 194.262 127.392ZM137.36 22.5491L138.148 23.061C139.759 24.1055 140.892 25.7445 141.301 27.6211C141.711 29.4977 141.362 31.4599 140.332 33.0806C136.237 29.8268 131.967 26.8006 127.54 24.0157C128.711 22.6063 130.359 21.6777 132.17 21.4071C133.981 21.1365 135.83 21.5431 137.36 22.5491ZM97.6577 17.5491C105.519 20.3729 113.095 23.9319 120.288 28.1791L120.387 28.2283C126.764 32.009 132.82 36.3083 138.492 41.0826C138.57 41.1613 138.668 41.2302 138.757 41.309C144.21 45.97 149.368 50.9631 154.206 56.2598C169.351 72.4945 181.115 91.5826 188.811 112.411C168.939 94.6525 147.941 78.1975 125.946 63.1495C125.729 62.8859 125.474 62.6568 125.189 62.4704C124.934 62.3058 124.659 62.1736 124.372 62.0767C120.436 59.3995 116.468 56.7748 112.467 54.2027C86.6969 37.5835 59.7279 22.904 31.7822 10.2854C49.8574 8.25782 73.2262 8.74011 97.6577 17.5491ZM23.4678 208.661C21.4999 211.614 17.1509 212.175 13.7464 209.951L12.9494 209.439C11.2941 208.394 10.0927 206.763 9.58432 204.872C9.36114 204.069 9.31063 203.226 9.43614 202.403C9.56164 201.578 9.86026 200.789 10.3124 200.089L104.88 58.0708C106.071 58.8287 107.271 59.5865 108.452 60.3543C111.659 62.4212 114.847 64.5373 118.016 66.6732L23.4678 208.661Z" fill="black" stroke="black" stroke-width="3"/>
<path d="M212.622 110.61C229.851 115.472 240.557 123.346 240.557 131.161C240.557 137.254 233.965 143.504 222.481 148.307C209.808 153.602 192.855 156.496 174.819 156.496C156.783 156.496 139.83 153.543 127.156 148.278C115.664 143.474 109.082 137.224 109.082 131.132C109.082 122.362 122.316 113.72 142.801 109.114C143.273 109.011 143.718 108.815 144.113 108.538C144.508 108.262 144.844 107.91 145.103 107.503C145.362 107.096 145.538 106.642 145.621 106.166C145.704 105.692 145.692 105.205 145.586 104.734C145.361 103.783 144.77 102.96 143.94 102.443C143.11 101.927 142.11 101.76 141.158 101.978C116.441 107.53 101.682 118.425 101.682 131.132C101.682 140.443 109.701 148.937 124.313 155.029C137.882 160.699 155.799 163.819 174.858 163.819C193.917 163.819 211.836 160.699 225.394 155.029C239.967 148.937 248.025 140.443 248.025 131.132C248.025 119.567 235.883 109.478 214.728 103.573C213.787 103.304 212.779 103.418 211.922 103.891C211.065 104.362 210.429 105.154 210.153 106.092C209.887 107.019 209.997 108.013 210.46 108.859C210.922 109.705 211.699 110.334 212.622 110.61Z" fill="black" stroke="black" stroke-width="3"/>
<path d="M240.272 158.278C239.541 157.626 238.584 157.287 237.606 157.336C236.629 157.383 235.71 157.814 235.046 158.533C234.721 158.888 234.469 159.303 234.305 159.756C234.142 160.209 234.07 160.69 234.093 161.17C234.117 161.652 234.236 162.123 234.444 162.557C234.652 162.991 234.944 163.38 235.302 163.701C238.785 166.831 240.557 170.039 240.557 173.238C240.557 179.341 233.965 185.591 222.481 190.394C209.808 195.689 192.885 198.602 174.819 198.602C156.754 198.602 139.83 195.65 127.156 190.394C115.664 185.591 109.082 179.341 109.082 173.238C109.082 170.039 110.843 166.831 114.336 163.701C114.694 163.38 114.984 162.99 115.191 162.556C115.398 162.122 115.517 161.651 115.54 161.17C115.564 160.69 115.492 160.21 115.33 159.757C115.166 159.304 114.916 158.889 114.592 158.533C113.928 157.814 113.009 157.383 112.031 157.336C111.054 157.287 110.097 157.626 109.367 158.278C104.339 162.785 101.682 167.963 101.682 173.238C101.682 182.559 109.701 191.043 124.313 197.136C137.882 202.805 155.799 205.925 174.858 205.925C193.917 205.925 211.836 202.805 225.394 197.136C239.967 191.043 248.025 182.559 248.025 173.238C247.956 167.963 245.299 162.785 240.272 158.278Z" fill="black" stroke="black" stroke-width="3"/>
<path d="M240.272 200.384C239.542 199.729 238.585 199.39 237.606 199.438C236.628 199.485 235.709 199.917 235.046 200.64C234.721 200.994 234.469 201.409 234.305 201.862C234.142 202.315 234.07 202.796 234.093 203.277C234.117 203.758 234.236 204.229 234.444 204.663C234.652 205.097 234.944 205.486 235.302 205.807C238.785 208.937 240.557 212.146 240.557 215.344C240.557 221.437 233.965 227.697 222.481 232.5C209.808 237.795 192.885 240.709 174.819 240.709C156.754 240.709 139.83 237.756 127.156 232.5C115.664 227.697 109.082 221.437 109.082 215.344C109.082 212.146 110.843 208.937 114.336 205.807C114.694 205.485 114.984 205.096 115.191 204.662C115.398 204.228 115.517 203.757 115.54 203.277C115.564 202.796 115.492 202.316 115.33 201.863C115.166 201.41 114.916 200.995 114.592 200.64C113.93 199.917 113.01 199.485 112.031 199.438C111.053 199.39 110.095 199.729 109.367 200.384C104.339 204.892 101.682 210.059 101.682 215.344C101.682 224.665 109.701 233.15 124.313 239.242C137.882 244.911 155.799 248.031 174.858 248.031C193.917 248.031 211.836 244.911 225.394 239.242C239.967 233.15 248.025 224.665 248.025 215.344C247.956 210.059 245.299 204.892 240.272 200.384Z" fill="black" stroke="black" stroke-width="3"/>
</svg>
