<svg width="250" height="250" viewBox="0 0 250 250" fill="none" xmlns="http://www.w3.org/2000/svg">
<path d="M40.5691 212.084C23.1701 212.084 7.75623 223.983 1.31473 242.505C1.0831 243.102 0.974175 243.739 0.994456 244.38C1.01473 245.02 1.16381 245.649 1.43278 246.23C1.70176 246.812 2.08512 247.332 2.56002 247.763C3.03492 248.192 3.59164 248.523 4.19698 248.733C4.8023 248.943 5.44386 249.03 6.08339 248.987C6.72291 248.944 7.34731 248.774 7.91936 248.485C8.49141 248.196 8.99939 247.796 9.41301 247.307C9.82664 246.817 10.1374 246.25 10.3269 245.638C15.4086 231.043 27.2892 221.613 40.5691 221.613C53.6408 221.613 65.4419 230.834 70.6328 245.093C70.8152 245.718 71.1241 246.3 71.5406 246.802C71.9569 247.303 72.472 247.713 73.0538 248.008C73.6354 248.303 74.2715 248.474 74.9224 248.513C75.5734 248.552 76.2255 248.456 76.8382 248.234C77.4509 248.011 78.0112 247.665 78.4844 247.216C78.9577 246.768 79.3338 246.227 79.5896 245.628C79.8452 245.029 79.975 244.383 79.9709 243.732C79.9668 243.08 79.8288 242.437 79.5656 241.84C73.0248 223.765 57.7002 212.084 40.5691 212.084Z" fill="black" stroke="black"/>
<path d="M124.874 57.1239C107.465 57.1239 92.0515 69.0721 85.62 87.5548C85.4153 88.1484 85.3301 88.7767 85.3691 89.4034C85.408 90.0301 85.5705 90.6429 85.8472 91.2066C86.1238 91.7705 86.5092 92.2742 86.9812 92.6889C87.4532 93.1035 88.0024 93.421 88.5975 93.623C89.1053 93.7984 89.6384 93.8889 90.1756 93.8908C91.1659 93.8872 92.1307 93.5775 92.9375 93.004C93.7444 92.4305 94.3537 91.6214 94.6817 90.6881C99.7639 76.0924 111.634 66.6627 124.924 66.6627C137.996 66.6627 149.737 75.8742 154.977 90.1427C155.485 91.2218 156.378 92.0722 157.481 92.5263C158.584 92.9804 159.817 93.0052 160.939 92.5958C162.06 92.1866 162.986 91.3729 163.536 90.315C164.086 89.2571 164.219 88.0318 163.911 86.8805C157.32 68.8045 141.985 57.1239 124.874 57.1239Z" fill="black" stroke="black"/>
<path d="M248.891 241.84C242.311 223.765 226.995 212.094 209.864 212.094C192.455 212.094 177.052 223.993 170.61 242.515C170.378 243.112 170.27 243.749 170.29 244.39C170.31 245.03 170.459 245.659 170.728 246.24C170.997 246.821 171.38 247.342 171.855 247.773C172.33 248.202 172.887 248.533 173.492 248.743C174.097 248.953 174.739 249.04 175.379 248.997C176.018 248.954 176.643 248.784 177.214 248.495C177.787 248.206 178.295 247.806 178.708 247.316C179.122 246.827 179.433 246.26 179.622 245.648C184.704 231.053 196.574 221.623 209.864 221.623C222.936 221.623 234.727 230.844 239.919 245.103C240.427 246.178 241.319 247.024 242.42 247.475C243.521 247.928 244.751 247.952 245.869 247.545C246.987 247.138 247.913 246.328 248.464 245.275C249.016 244.221 249.154 243 248.851 241.85L248.891 241.84Z" fill="black" stroke="black"/>
<path d="M124.656 51.5217C129.657 51.5236 134.546 50.0445 138.704 47.2713C142.864 44.4982 146.107 40.5554 148.024 35.9413C149.94 31.3273 150.445 26.2491 149.473 21.3486C148.502 16.4481 146.098 11.9454 142.565 8.4095C139.034 4.87358 134.531 2.46324 129.628 1.48311C124.724 0.502981 119.64 0.997075 115.018 2.90294C110.396 4.80879 106.442 8.04088 103.659 12.1907C100.874 16.3404 99.3839 21.2216 99.376 26.2173C99.371 32.9214 102.031 39.3533 106.772 44.0985C111.512 48.8437 117.945 51.5138 124.656 51.5217ZM124.656 10.5408C127.77 10.5408 130.812 11.4631 133.402 13.1911C135.99 14.9191 138.008 17.3751 139.199 20.2487C140.391 23.1222 140.702 26.2842 140.095 29.3348C139.488 32.3853 137.988 35.1875 135.787 37.3868C133.585 39.5861 130.781 41.0839 127.727 41.6907C124.674 42.2975 121.508 41.986 118.632 40.7957C115.756 39.6056 113.298 37.5899 111.567 35.0038C109.837 32.4176 108.915 29.3771 108.915 26.2668C108.911 24.1982 109.314 22.1491 110.104 20.2365C110.893 18.324 112.052 16.5856 113.514 15.1205C114.975 13.6556 116.711 12.4927 118.624 11.6983C120.536 10.904 122.585 10.4938 124.656 10.4912V10.5408Z" fill="black" stroke="black"/>
<path d="M209.656 206.433C214.658 206.433 219.548 204.95 223.706 202.175C227.865 199.398 231.106 195.452 233.021 190.836C234.935 186.219 235.436 181.14 234.459 176.238C233.484 171.337 231.075 166.836 227.539 163.303C224.002 159.769 219.495 157.363 214.59 156.388C209.685 155.414 204.599 155.914 199.978 157.825C195.357 159.738 191.408 162.976 188.629 167.131C185.85 171.286 184.366 176.171 184.366 181.168C184.374 187.866 187.042 194.288 191.783 199.024C196.524 203.76 202.951 206.425 209.656 206.433ZM209.656 165.441C212.769 165.443 215.812 166.367 218.399 168.096C220.986 169.825 223.002 172.283 224.192 175.156C225.382 178.03 225.692 181.191 225.084 184.241C224.475 187.292 222.975 190.092 220.774 192.291C218.571 194.489 215.767 195.986 212.713 196.592C209.661 197.198 206.496 196.886 203.62 195.695C200.744 194.505 198.286 192.489 196.557 189.904C194.827 187.317 193.905 184.278 193.905 181.168C193.91 176.996 195.571 172.998 198.525 170.05C201.478 167.101 205.481 165.444 209.656 165.441Z" fill="black" stroke="black"/>
<path d="M40.3608 205.718C45.3613 205.718 50.2495 204.237 54.4078 201.462C58.5659 198.687 61.8074 194.744 63.7224 190.129C65.6373 185.514 66.1399 180.436 65.1665 175.536C64.1931 170.636 61.7874 166.134 58.2536 162.599C54.7198 159.064 50.2164 156.656 45.3126 155.678C40.409 154.699 35.325 155.195 30.7034 157.103C26.0818 159.011 22.1301 162.245 19.3477 166.396C16.5652 170.547 15.077 175.429 15.0712 180.424C15.0685 187.128 17.7311 193.559 22.4735 198.303C27.216 203.046 33.6499 205.713 40.3608 205.718ZM40.3608 164.727C43.4781 164.725 46.526 165.648 49.1185 167.377C51.711 169.107 53.7314 171.566 54.924 174.443C56.1165 177.321 56.4275 180.488 55.8176 183.542C55.2078 186.596 53.7044 189.401 51.498 191.601C49.2915 193.802 46.4812 195.298 43.4229 195.901C40.3644 196.505 37.1957 196.187 34.3176 194.991C31.4395 193.795 28.9816 191.771 27.2552 189.178C25.5287 186.585 24.6113 183.538 24.6192 180.424C24.635 176.261 26.2994 172.273 29.2489 169.331C32.1986 166.391 36.1934 164.735 40.3608 164.727Z" fill="black" stroke="black"/>
<path d="M161.975 173.364L131.534 152.868V110.777C131.534 109.512 131.031 108.299 130.136 107.405C129.241 106.51 128.026 106.008 126.76 106.008C125.494 106.008 124.28 106.51 123.384 107.405C122.489 108.299 121.986 109.512 121.986 110.777V153.037L89.2327 177.944C88.2526 178.721 87.6163 179.85 87.4607 181.089C87.3051 182.329 87.6426 183.58 88.4006 184.574C89.1586 185.567 90.2766 186.224 91.5143 186.404C92.752 186.582 94.0104 186.269 95.0192 185.531L126.939 161.267L156.645 181.267C157.698 181.974 158.989 182.234 160.234 181.991C161.479 181.747 162.577 181.02 163.285 179.967C163.993 178.916 164.254 177.626 164.01 176.382C163.766 175.138 163.038 174.042 161.985 173.334L161.975 173.364Z" fill="black" stroke="black"/>
</svg>
