<svg aria-hidden="true" style="position: absolute; width: 0; height: 0; overflow: hidden;" version="1.1" xmlns="http://www.w3.org/2000/svg" xmlns:xlink="http://www.w3.org/1999/xlink">
<defs>
<symbol id="icon-logo" viewBox="0 0 38 32">
<path d="M32.293 4.281l-26.389 13.824c-0.071-0.523-0.111-1.128-0.111-1.742 0-2.444 0.641-4.738 1.763-6.724l-0.035 0.068c1.142-2.029 2.737-3.68 4.654-4.856l0.058-0.033c1.84-1.129 4.063-1.809 6.442-1.838l0.008-0c2.269-0.024 4.504 0.562 6.486 1.699l2.978-1.56c-2.248-1.698-5.024-2.812-8.045-3.067l-0.057-0.004c-0.371-0.031-0.802-0.049-1.238-0.049-2.645 0-5.135 0.661-7.314 1.826l0.083-0.041c-2.653 1.417-4.803 3.468-6.299 5.956l-0.041 0.073c-1.472 2.439-2.343 5.384-2.343 8.533 0 0.443 0.017 0.882 0.051 1.316l-0.004-0.057c0.005 0.067 0.008 0.146 0.008 0.225 0 0.534-0.138 1.037-0.379 1.473l0.008-0.016c-0.281 0.511-0.693 0.918-1.192 1.186l-0.016 0.008-1.367 0.716v3.342l37.6-19.702v-3.342l-5.307 2.784zM37.6 7.46l-37.6 19.698v3.34l31.704-16.616c0.074 0.584 0.111 1.171 0.111 1.76 0 0 0 0 0 0.001 0 2.445-0.641 4.74-1.764 6.727l0.035-0.068c-1.143 2.031-2.739 3.685-4.659 4.861l-0.058 0.033c-1.843 1.13-4.069 1.809-6.451 1.834l-0.007 0c-2.272 0.022-4.509-0.568-6.49-1.711l-0.159 0.087-2.809 1.472c2.247 1.699 5.023 2.813 8.043 3.068l0.057 0.004c0.372 0.032 0.805 0.050 1.242 0.050 2.642 0 5.13-0.66 7.308-1.823l-0.083 0.041c2.653-1.417 4.803-3.467 6.299-5.955l0.041-0.073c1.474-2.441 2.347-5.389 2.347-8.542 0-0.444-0.017-0.885-0.051-1.32l0.004 0.058c-0.005-0.068-0.008-0.146-0.008-0.225 0-0.534 0.137-1.036 0.379-1.473l-0.008 0.016c0.28-0.512 0.7-0.927 1.208-1.194l1.369-0.717v-3.332z"></path>
</symbol>
</defs>
</svg>
