<svg width="520" height="520" viewBox="0 0 520 520" fill="none" xmlns="http://www.w3.org/2000/svg">
<g filter="url(#filter0_d_2_36)">
<rect x="4" width="512" height="512" rx="78" fill="white"/>
<rect x="4.5" y="0.5" width="511" height="511" rx="77.5" stroke="white"/>
</g>
<path d="M409.285 111.933L359.195 138.49L117.315 266.7C116.497 260.208 116.085 253.668 116.083 247.12C116.116 220.997 122.706 195.335 135.202 172.678C147.698 150.02 165.665 131.153 187.323 117.945C208.982 104.737 233.581 97.6466 258.683 97.3759C283.785 97.1052 308.519 103.664 330.436 116.402L359.107 101.2L363.384 98.9286C337.12 79.0907 306.096 67.1961 273.742 64.5592C241.388 61.9223 208.963 68.646 180.051 83.987C151.139 99.328 126.866 122.689 109.915 151.488C92.9636 180.287 83.9939 213.403 83.9973 247.175C83.9973 251.84 84.1674 256.486 84.5077 261.114C84.9843 267.667 83.5876 274.221 80.4934 279.95C77.3992 285.68 72.7458 290.329 67.1186 293.312L52 301.335V338.753L96.5111 315.145L110.926 307.489L125.129 299.961L380.122 164.755L408.775 149.571L468 118.16V80.7595L409.285 111.933Z" fill="black"/>
<path d="M468 156.875L139.614 330.923L110.961 346.147L52 377.421V414.814L110.556 383.76L160.646 357.195L402.773 228.766C403.592 235.302 404.003 241.887 404.005 248.479C403.99 274.64 397.401 300.343 384.893 323.034C372.385 345.725 354.393 364.617 332.704 377.833C311.014 391.049 286.38 398.13 261.249 398.372C236.118 398.615 211.362 392.011 189.441 379.216L187.68 380.187L156.598 396.676C182.857 416.52 213.874 428.422 246.223 431.066C278.572 433.71 310.994 426.993 339.906 411.658C368.818 396.323 393.094 372.967 410.053 344.17C427.011 315.373 435.992 282.256 436.003 248.479C436.003 243.77 435.827 239.062 435.492 234.408C435.016 227.855 436.412 221.302 439.502 215.572C442.593 209.841 447.241 205.19 452.864 202.2L468 194.176V156.875Z" fill="black"/>
<defs>
<filter id="filter0_d_2_36" x="0" y="0" width="520" height="520" filterUnits="userSpaceOnUse" color-interpolation-filters="sRGB">
<feFlood flood-opacity="0" result="BackgroundImageFix"/>
<feColorMatrix in="SourceAlpha" type="matrix" values="0 0 0 0 0 0 0 0 0 0 0 0 0 0 0 0 0 0 127 0" result="hardAlpha"/>
<feOffset dy="4"/>
<feGaussianBlur stdDeviation="2"/>
<feComposite in2="hardAlpha" operator="out"/>
<feColorMatrix type="matrix" values="0 0 0 0 0 0 0 0 0 0 0 0 0 0 0 0 0 0 0.25 0"/>
<feBlend mode="normal" in2="BackgroundImageFix" result="effect1_dropShadow_2_36"/>
<feBlend mode="normal" in="SourceGraphic" in2="effect1_dropShadow_2_36" result="shape"/>
</filter>
</defs>
</svg>
