<svg xmlns="http://www.w3.org/2000/svg" viewBox="0 0 300 380"><g id="Слой_2" data-name="Слой 2"><g id="Слой_1-2" data-name="Слой 1"><path d="M52.54,380C34,375.1,18.85,365.67,8.87,349.17-7.42,322.26-.78,286.8,24.78,268c6-4.41,8.38-9,7.9-16.07-.54-7.87-.17-15.8-.06-23.7.06-4.32,1.42-8.3,6.67-8.12,4.73.16,6,3.92,6,8,0,7.41.15,14.83,0,22.23-.08,4.37,1,6.18,6.16,5.28C62.73,253.65,62.8,254,62.8,242.66c0-20.26.15-40.51-.07-60.77-.09-7.29,1.29-12.8,10.16-13.39,3.63-.23,4.23-1.84,2-4.79C69,156,63.33,148.1,57.58,140.27c-2.43-3.32-4.75-3.14-7.14.06Q41.71,152,32.92,163.62c-2.24,3-1.3,4.63,2.2,4.86,8.79.57,10.65,5.91,10.26,13.29-.3,5.67,0,11.36-.16,17-.11,3.91-1.91,6.84-6.31,6.83-4,0-5.58-2.89-6.14-6.35-.19-1.21-.11-2.46-.21-3.69-.35-4.14,1.42-8.84-1.14-12.31-2.65-3.62-7.61-1.27-11.46-2.15-6.87-1.58-10.13-7.23-6.16-12.77C24.69,153.21,36,138.32,47.48,123.59c3.82-4.9,9.64-4.67,13.55.42,10.91,14.24,21.66,28.6,32,43.22,4.92,6.94,1.47,13.9-7.33,13.79-9.55-.13-10.43,4.3-10.27,11.79.41,18.27.49,36.57,0,54.83-.21,7.49,4.51,8.4,9.8,9.48,3.56.72,3.25-2,3.73-4.16,2.59-11.52,7.22-15.18,19.39-15.43,20-.41,20-.41,20-20.35,0-29.64-.14-59.28.11-88.92.06-6.47-1.58-9.85-8.89-9.14-4.17.41-8.23-.6-10.29-4.76s-.34-7.61,2.22-11c10-13.09,19.74-26.3,29.79-39.32,6.36-8.25,11.58-8.06,17.87.38,9.37,12.59,18.64,25.25,28,37.83,2.77,3.71,5.39,7.43,3,12.18-2.29,4.47-6.72,5-11.12,4.69-6.1-.44-7.78,2.24-7.74,7.87.18,34.33.08,68.67.11,103,0,3.41-.61,7.34,4.88,7.37s4.82-3.88,4.93-7.31c.69-20.82.47-41.64.08-62.47-.22-11.79,5.4-17.18,17.46-17.52,6.32-.18,12.65-.16,19-.06,4.46.08,6.46-1.82,6.45-6.2q-.09-38.16,0-76.32c0-5-2.67-6.35-7.18-6.32s-9.35-.31-11.85-5c-2.59-4.86.56-8.52,3.25-12.11,9.41-12.56,18.8-25.13,28.36-37.58,6.68-8.7,11.86-8.72,18.44,0Q269.81,25.92,284,45.6c6.06,8.42,2.87,15.13-7.79,15.35-7.4.15-9.41,2.68-9.3,9.63q.57,35.57,0,71.14c-.1,6.57,2.19,9.06,8.76,8.38a43.07,43.07,0,0,1,8.34.11c8.93.8,15.17,5.16,15,13.74-.3,15.86,2,31.79-.7,47.58a25,25,0,0,0,.16,7.23c1.76,16.06.43,32.19.4,48.28,0,4.1-1.21,8.2.18,12.32a6.49,6.49,0,0,1,.5,2.91c-2.41,15.54,2,31.3-1.46,46.78a12.36,12.36,0,0,0,.5,6.51,39,39,0,0,1,1.15,14.7c-1.09,11.75-6.48,16.66-18.72,16.67q-83.1.09-166.22,0c-6,0-11.43.71-16.39,4.34-6.4,4.68-14.27,6.15-21.61,8.77Zm63.79-62.79c-.07-28-22.75-50.42-51.35-50.76a51.22,51.22,0,0,0-51.83,51.06c0,28.68,22.64,50.51,52.17,50.41C94.07,367.83,116.39,345.64,116.33,317.21ZM141.1,173.5c0,18.54.23,37.07-.13,55.6-.13,6.46,2,8.57,8.67,8.62,7,.06,9.09-2.33,9-9.05-.27-36.56-.09-73.13-.14-109.7,0-7,1.63-12.35,10.37-12.22,4.92.08,4.09-2.32,2.07-5-5.93-8-12-15.93-17.76-24-2.61-3.66-4.3-3-6.65.23-5.85,8.06-11.91,16-17.93,23.92-2.14,2.82-2.91,5.08,2,4.93,8.64-.25,10.58,4.66,10.51,11.91C141,136.94,141.09,155.22,141.1,173.5Zm99.53,48c-12.9,0-25.8.24-38.69-.11-6.56-.18-8.14,2.61-8.13,8.44s2.05,7.92,8,7.79c12.38-.28,24.78-.14,37.17,0,4.86.05,10.76.09,10.65,6.56-.1,6-5.72,5.84-10.35,5.86-8.1,0-16.21.33-24.28-.08-6.58-.33-7.44,3-7.35,8.22s0,9.1,7.37,9c21.24-.35,42.49-.24,63.74-.05,5.49.05,7.72-1.77,7.68-7.27-.08-8.76-.71-9.65-9.83-9.78-2,0-4.06,0-6.06-.18-3.42-.31-5.82-2-6-5.52s2.15-5.55,5.36-6.21a29.13,29.13,0,0,1,8.28-.51c6.38.53,8.3-2.25,8.34-8.24.05-6.35-2.68-8.09-8.68-8C265.42,221.67,253,221.47,240.63,221.48ZM222.26,46.82c14.56,3.5,15.5,4.64,15.51,18.35,0,24.91.08,49.83-.05,74.75,0,5.94,0,10.36,8.53,10.38,9,0,8.1-5.13,8.1-10.68,0-26.15.05-52.3,0-78.45,0-7,1.87-12.2,10-13,3.31-.33,4.8-1.56,2.45-4.72-6.08-8.19-12.18-16.36-18.19-24.6-1.85-2.54-3.48-2.49-5.27-.09C236.47,27.87,229.63,37,222.26,46.82ZM156,279.5c-11.13,0-22.25.06-33.37,0-3.88,0-4.79.71-3,4.64,3.57,7.87,8,13.49,18.08,11.71,2.37-.42,5,.38,7.49.86,3.05.59,5,2.41,5.06,5.59a5.63,5.63,0,0,1-4.76,5.9,56,56,0,0,1-10.53.76c-9,0-4,6.59-5.08,10.24-1.15,4,.59,5.89,5,5.86q26.93-.18,53.84,0c6.68.05,6.07-4.26,6.22-8.56.16-4.59-.82-7.76-6.54-7.53-4.79.2-9.6.11-14.4-.08-4.22-.17-8.67-1-8.91-6.08-.27-5.62,4.46-6.59,8.91-6.9a121.7,121.7,0,0,1,13.64-.2c5.72.26,7.47-2.39,7.35-7.63-.11-5-.53-8.76-7.19-8.59C177.23,279.71,166.61,279.51,156,279.5ZM149,250c-13.11,0-26.24.23-39.35-.1-6.52-.16-8.19,2.65-8.13,8.46.05,5.56,1.16,8.76,7.9,8.7q39-.36,78,0c6.93.07,7.7-3.44,7.7-8.83s-1.08-8.45-7.47-8.31C174.71,250.21,161.84,250,149,250Zm90.93-70.5c12.89,0,25.8-.22,38.69.09,6.08.15,8.06-2.26,7.83-7.88-.2-5.05-.15-9.31-7.39-9.25q-39.07.3-78.15,0c-6.81,0-6.87,4-7,8.8-.13,5.15.74,8.5,7.32,8.32C214.09,179.26,227,179.5,239.9,179.51Zm.84,12.51c-12.89,0-25.78.18-38.66-.08-5.62-.11-8.4,1.37-8.25,7.45.13,5.44.9,8.91,7.77,8.84,25.77-.23,51.54-.19,77.31,0,6.33,0,7.46-3.11,7.54-8.36.08-5.57-1.7-8.07-7.82-7.92C266,192.25,253.37,192,240.74,192ZM247,354.45c10.59,0,21.18-.25,31.76.09,6.25.21,7.78-2.6,7.64-8-.14-5.14-.4-9.18-7.5-9.1-21.43.23-42.86.26-64.28,0-6.87-.1-7,3.64-7,8.5s-.16,8.88,6.84,8.66C225.34,354.19,236.19,354.45,247,354.45Zm-90.49,0c9.85,0,19.71-.26,29.55.1,6.4.23,9-1.75,9-8.38.08-7-2.64-9-9.4-8.8-15.4.35-30.88.95-46.2-.19-10.56-.78-15.56,3.33-19.08,12.16-1.8,4.51-.49,5.14,3.5,5.12C134.82,354.41,145.68,354.44,156.54,354.45Zm90.87-74.95c-10.86,0-21.72.22-32.57-.09-5.92-.17-7.31,2.49-7.19,7.62.1,4.92.36,8.72,7.07,8.65q32.19-.29,64.38,0c6.48.05,7.3-3.44,7.32-8.53s-1.26-7.89-7.2-7.73C268.62,279.71,258,279.5,247.41,279.5Zm-.8,45.48c10.85,0,21.7-.18,32.55.07,5.84.13,7.29-2.64,7.27-7.73s-.77-8.51-7.31-8.45q-32.17.33-64.35,0c-6.7-.07-7.06,3.53-7.13,8.5s1.26,7.86,7.17,7.7C225.4,324.78,236,325,246.61,325Z"/><path d="M88.72,328.63c-.78,7.16-4,12.78-11.06,15.55-3.77,1.48-6.59,3-7,7.53-.3,2.9-2.58,4.79-5.86,4.72s-5.52-1.94-5.9-4.79c-.66-4.95-3.74-5.67-7.94-5.78s-7.68-1.79-7.61-6.47c.08-4.92,3.9-5.75,8-5.79,5.81-.05,11.62,0,17.43-.15,3.25-.09,6.25-1.11,6.18-5s-3.26-4.48-6.47-4.55-6.58.08-9.85-.2c-9.37-.8-16-6.56-17.41-14.83-1.34-8.05,2.79-15.06,11.55-18.62,3.32-1.34,5.61-2.62,5.89-6.56A5.81,5.81,0,0,1,64.55,278a5.63,5.63,0,0,1,6.19,5.34c.36,5,3.1,6.08,7.52,5.89,4.11-.18,8,.9,8.11,5.72.17,5.19-3.79,6.49-8.2,6.61-5.81.16-11.62.08-17.43.15-3.29,0-6.35.79-6.24,4.76.11,3.82,3.13,4.71,6.4,4.82,3.78.13,7.59-.08,11.36.22C81.94,312.29,89,319.7,88.72,328.63Z"/></g></g></svg>