<svg xmlns="http://www.w3.org/2000/svg" viewBox="0 0 380 320"><g id="Слой_2" data-name="Слой 2"><g id="Слой_1-2" data-name="Слой 1"><path d="M380,246.34c-3.17,11-6.16,22-12.58,31.66a32.41,32.41,0,0,1-4,5.33c-2.37,2.32-5.28,2.83-8.05.69-2.48-1.93-2.83-4.7-1.49-7.39,2-4,4.45-7.74,6.42-11.74a76,76,0,0,0-25.41-96.29c-30.37-20.82-72.89-16-97.47,11-25.79,28.34-27.26,70.21-3.48,99.59,24.14,29.83,65.16,36.91,98.22,17,4.3-2.58,9.44-7.44,13.37-.92s-2.84,9-7,11.61a86.77,86.77,0,0,1-101.67-7.13c-4.77-4-9.43-5.42-15.38-5.4q-101.16.19-202.33.07C3.54,294.4,0,290.83,0,275.09Q0,151.42,0,27.73C0,12.12,4.18,8,19.84,7.82,26,7.73,32.47,9.63,36.68,2.09c2-3.52,6-2.18,8.73,1C51.17,9.74,59.56,9.86,65,3.38c3.53-4.24,6.88-4.24,10.38,0,5.23,6.31,14.17,6.5,19.13.31,3.71-4.63,7.13-4.66,10.8,0,4.55,5.77,14.16,5.9,18.75.35,4.44-5.38,7.31-5.29,11.53.4,3.63,4.89,13.84,4.91,17.91,0,4.93-5.89,7.38-5.86,11.87.17,3.32,4.45,13.79,4.62,17.58.28,5.62-6.45,7.35-6.46,12.23-.07,3.27,4.28,14,4.3,17.73,0,5.56-6.44,6.75-6.44,12.31,0,3.87,4.47,13.79,4.25,17.67-.39,4.94-5.91,7-6.06,11.85.24,2.41,3.15,5.35,3.07,8.54,3.14,24.69.6,26.47,2.42,26.47,27.05q0,48.81,0,97.61c0,10.27,0,10.27,9.9,10.71a17.21,17.21,0,0,1,3.68.26c6.07,1.68,7.33-1.43,7.07-6.66a39.4,39.4,0,0,1,.63-8.87c.52-2.89,2.34-5.07,5.49-5.19,3.42-.13,5.9,1.87,6.33,5.11a140.62,140.62,0,0,1,.78,14.82c.09,3.12.35,6.09,3.68,7.44,2.2.9,4.33,3.43,6.75,1.89,2.06-1.3,1.11-4.12,1.12-6.27q.08-31.67,0-63.33c0-5.93.95-11.09,8-12.24,2.61-.43,2.82-1.65,1.5-3.53q-6.45-9.09-13-18.13c-2.29-3.16-3.95-1.62-5.65.74-4.6,6.42-9.29,12.78-14.47,19.89,4.2,1.32,8.56,1.3,10.39,5.45,1.55,3.51,1.75,7.22,1.69,11-.09,5.45,0,10.92-.49,16.35-.29,3.47-2.16,6.27-6.07,6.32s-5.81-2.7-6.2-6.16a113.21,113.21,0,0,1-.51-12.63c0-4-.95-6.29-5.61-7-10.44-1.52-12.8-7.41-6.66-16.08Q309,50.9,320.44,35.77c6.14-8.14,11.68-8,17.64.28,7.4,10.25,14.87,20.45,22,30.86,5.78,8.39,3.36,14.12-6.78,15.52-4.58.63-5.71,2.68-5.7,6.78.09,22.6.06,45.2,0,67.8,0,3.11.52,5.87,3,8,15.71,13.74,24.52,31.46,29.33,51.48ZM144.24,73.16q54.12,0,108.23,0c11.55,0,15,3.54,15.08,15.14.07,17.39,0,34.78.07,52.17,0,2.14-.29,5.08,2.94,5,2.84-.1,6.2-.4,6.57-4.5.15-1.73.13-3.47.13-5.21q0-31.31,0-62.6c0-9.69,0-9.72-9.94-9.72q-88.21,0-176.43-.07c-4.84,0-12.09,1.89-12.23-5.74-.14-7.88,7.17-6.68,12.41-6.69q64.13-.12,128.25,0c16.56,0,33.12-.26,49.67.12,6.59.15,8.92-2.19,8.36-8.64a129.9,129.9,0,0,1-.07-14.9c.15-4.46-1.88-6.39-6.21-6.25a61.84,61.84,0,0,1-6.67,0c-5.32-.38-9.21.59-9.4,7.29-.1,3.68-2.06,6.88-6.42,6.75s-5.94-3.49-6.12-7.14c-.27-5.59-3.17-7-8.21-7s-8.65.91-8.92,7.06c-.16,3.69-1.91,7-6.16,7.14-4.73.12-6.52-3.47-6.57-7.44-.09-7.31-5-6.51-9.77-6.71-5.05-.21-8.08,1.19-7.78,7,.19,3.88-1.49,7.06-5.82,7.12s-6.33-3.22-6.27-6.91c.14-7.77-5-7-10-7.26-6-.35-7.87,2.39-7.66,8,.12,3.3-1.7,5.83-5.19,6.18-3.93.41-5.77-2.22-6.7-5.61A28,28,0,0,1,152.9,26c-.87-6.63-6.07-4.41-9.86-4.7-3.53-.26-7.21-.16-7.26,5,0,4.46-.56,9.08-6.34,9-5.17-.1-6-4.44-6.15-8.61-.3-6.71-5.3-5.23-9.25-5.41-4.14-.19-8.17-.13-8,5.89.11,4.35-1.15,8.32-6.39,8.15-4.7-.15-6-4-6-8,0-7.13-5.06-6-9.4-6.1s-8.11.06-7.93,6c.12,4-1.06,7.84-5.77,8.06-5.18.24-6.61-3.75-6.6-8.06,0-6.55-4.48-6-8.72-6s-8.77-.44-8.61,6.1c.11,4.06-1.17,7.79-5.87,8-5.2.22-6.6-3.66-6.53-8,.07-4.59-2.25-6.18-6.44-6a55.51,55.51,0,0,1-7.41,0c-6.28-.59-8.41,2.41-8,8.38a89.46,89.46,0,0,1,0,13.4c-.52,6.36,2.34,8.19,8.28,8,11.36-.32,22.74-.11,34.1,0,4.45,0,9.12.74,9.14,6.32s-4.69,6.16-9.14,6.16q-16.31,0-32.61,0c-9.66,0-9.7,0-9.7,10.06q0,99.12,0,198.24c0,10.13,0,10.15,10.43,10.16H209.71c1,0,2-.06,3,0,4.94.32,7.33-.77,3.9-6.09a76.09,76.09,0,0,1-5-10c-5.15-11.37-10.73-12.46-19.62-3.74-6.74,6.61-17.12,8.06-23.29,1.23-5.93-6.57-12.47-6.84-19.92-6.58-4.69.16-9.4.22-14.08,0-5-.26-8.73,1-12.3,5.06-6.45,7.35-17.34,8.32-23.72,1.25-5.31-5.89-11-6.53-17.8-6.29-4.94.17-9.89.19-14.82,0-5.62-.23-10.12.68-14.35,5.49-6.49,7.41-17.74,6.88-24.54,0-6.58-6.62-6.65-18.24-.15-25s17.75-7.69,23.92-.53c5.32,6.17,11.15,7.17,18.29,6.74a128.55,128.55,0,0,1,14.82,0c5.27.29,9.18-1.11,12.86-5.43,6.63-7.76,18-8.81,24.27-1.42,5.55,6.5,11.72,7.16,19,6.83,4.44-.2,8.91-.2,13.34,0,5.19.25,9.17-.9,12.92-5.28,7.47-8.71,18.8-8.24,26.59.23,1.17,1.27,2.09,3,3.52,3.75,2.71,1.53,6.49,2.35,7.54-1.27,1.49-5.19,1.81-11.11-.25-16.1-1.68-4.07-6.62-2.24-10.12-2.25-51.89-.1-103.79,0-155.68-.09-12.41,0-16.52-3.64-16.58-15.68q-.3-58.86,0-117.74c.07-12.88,3.64-15.86,16.81-15.87Q91.24,73.14,144.24,73.16Zm95.85,68.44c2.71,0,5.43-.18,8.12,0,5.09.41,7-1.71,6.94-6.88-.31-19.28,1.79-15.92-16.07-16.27a30.27,30.27,0,0,1-3.69,0c-7.1-1-9.47,1.94-9.22,9.13C226.72,143.39,224.92,141.46,240.09,141.6ZM48,141.61h4.32c10.13,0,10.13,0,10.16-10.28,0-12.84,0-12.84-12.81-12.84-3.45,0-6.9,0-10.35.1-2.14,0-4.12.77-4.32,3.16-.5,5.91-2,12.37.64,17.56C38.08,144.17,44.21,140.57,48,141.61Zm40.63-23.09v0c-3,0-5.92,0-8.87,0-2.47,0-4.53.83-4.61,3.68-.12,5.2-.08,10.41,0,15.61,0,2,1.15,3.48,3.13,3.48,7.08,0,15.11,2.69,20.9-1.28,4.24-2.9,1-10.25,1.61-15.57,0-.25,0-.5,0-.75.15-3.84-1.86-5.34-5.48-5.23C93,118.58,90.81,118.52,88.59,118.52Zm75.44,0a31.3,31.3,0,0,1-4.44,0c-7.23-1-10,2.17-9,9.24a27.13,27.13,0,0,1,0,3.72c0,10.16,0,10.31,10.21,10.15,17.57-.26,15.45,3.22,15.71-16.59.07-4.83-1.82-6.87-6.56-6.5C168,118.63,166,118.51,164,118.49ZM48.73,154.12c-15,0-15,0-14.13,15.34,0,.74.07,1.48.12,2.22.19,2.56,1.47,4.37,4.07,4.42,6.63.13,13.28.07,19.92-.06,1.91,0,2.91-1.4,3.49-3.27C66.18,160.15,61.85,154.12,48.73,154.12Zm191.42-48.2c15.58,0,15.41,0,15-13.66-.14-4.74-1.72-6.83-6.53-6.59a84.47,84.47,0,0,1-13.31-.06c-7.22-.78-9.46,2.16-9.16,9.27.47,11,.08,11,11,11ZM126.86,118.49a39.15,39.15,0,0,1-5,0c-7.06-1-8.86,2.42-8.71,9,.37,16-.79,14,13.87,14.15,2.21,0,4.43,0,6.65-.09,1.51,0,3.3-.32,3.69-1.91,1.49-6.08,1.84-12.54.1-18.33C135.84,116,130,119.57,126.86,118.49ZM200.4,141.6a57.3,57.3,0,0,1,5.78,0c5.79.64,7.83-1.89,7.74-7.68-.3-17.94,1.27-15.21-15.53-15.45-1.72,0-3.45,0-5.17.11-1.52.09-3.24.48-3.57,2.09-1.27,6.11-1.88,12.6.07,18.33C191.43,144.08,197.2,140.55,200.4,141.6ZM88.72,176.33c3.29-.7,8.91,2.12,11-2.12,2.57-5.26,2.09-11.89.33-17.43-1.51-4.73-6.88-2.51-10.53-2.57-15.39-.23-15.24-.11-14.65,15.43.18,4.68,1.77,7,6.53,6.71C83.59,176.23,85.81,176.33,88.72,176.33Zm74.38,0c13.45,0,13.45,0,13.36-13,0-1.48-.05-3-.06-4.46,0-3-1.53-4.62-4.53-4.64-5.68,0-11.35,0-17,0-1.86,0-3.69.74-3.88,2.75-.54,5.66-1.84,11.8.5,16.87C153.71,178.73,159.55,175.44,163.1,176.36ZM48,105.92c14.43,0,14.43,0,14.45-9.75,0-10.45,0-10.46-10.75-10.47q-5.91,0-11.84.06c-2.37,0-4.17.65-5,3.35-3.52,11.11.37,16.8,11.69,16.81Zm78.72,48.2a36,36,0,0,1-4.21,0c-7-.9-9.62,1.81-9.41,9.1.37,13.15,0,13.17,12.86,13.15,2.46,0,4.92,0,7.38-.15,1.76-.09,3.77-.48,4.13-2.45,1.07-5.85,2-12.14-.38-17.5C135.22,152.11,129.9,154.85,126.71,154.12Zm74.06,22.24c13.16,0,13.16,0,13.06-12.64,0-1.74,0-3.47-.15-5.2s-.77-3.66-2.74-3.92a75,75,0,0,0-19.11,0,3.58,3.58,0,0,0-2.41,2.41c-.67,5.64-1.85,11.69.44,16.84C191.93,178.51,197.43,175.53,200.77,176.36ZM88.23,85.7v.09c-3,0-5.92,0-8.88,0-1.83,0-3.86.56-4,2.58-.27,4.92-1,10.11.17,14.75s6.36,2.84,9.68,2.62c5.08-.33,11.79,3.08,15-2.65,5-9.09-.43-17.39-10.47-17.4ZM163,105.92v-.08c2.94,0,5.88,0,8.82,0,2.09,0,4.24-.58,4.36-3a87.24,87.24,0,0,0,0-14c-.4-3.72-4-3.39-6.48-3-6.23.93-14.46-3.7-18.37,2.82-5.48,9.15.36,17.29,11,17.3ZM48.79,209.08c14.17,0,14.7-.73,13.71-13.65-.41-5.37-3.66-6.45-7.49-5.59-6.76,1.53-16.66-5.27-19.95,4.7-3.76,11.4-.39,14.53,11.51,14.54Zm76.33-103.24c2.71,0,5.43,0,8.14,0,2.46,0,4.53-.89,4.63-3.71a93.23,93.23,0,0,0,0-12.62c-.46-4.76-4.61-4.12-7.51-3.66-5.63.88-13.45-3.84-16.58,3.38C109.14,99.9,113.82,105.91,125.12,105.84Zm76.73-20.07c-2.71,0-5.42,0-8.14,0-2.5,0-4.47,1-4.56,3.77a91.62,91.62,0,0,0,.07,12.62c.5,4.75,4.68,4.07,7.55,3.6,5.62-.9,13.45,3.9,16.54-3.46C217.86,91.48,213.29,85.7,201.85,85.77Zm-114,103.92c-13.54,0-14,.58-13,13.57.3,4.08,2,6.38,5.88,5.67,6.58-1.19,15.61,4.4,19.44-3.54,4.8-9.95,0-15.68-10.82-15.7Zm75.93,0c-14,0-13.91.06-13.29,13.09.2,4.31,1.7,6.39,6.09,6.29,4.65-.11,9.31,0,14,0,1.95,0,4.44.1,5.1-2.07a24.69,24.69,0,0,0,.13-14.54c-1.33-4.25-5.86-2.25-9.05-2.7A22.17,22.17,0,0,0,163.82,189.69ZM126,209.08c3.52-1.24,9.41,2.73,11.75-3.49,3.83-10.2-.29-15.88-11-15.89-2.46,0-4.93.07-7.39,0-3.86-.07-5.73,1.53-6.12,5.64C112,207.82,113,209.08,126,209.08Zm75.59-19.34c-2.21,0-4.43,0-6.64,0-2.88,0-5.92.55-5.75,4.16.23,4.9-2.86,10.92,2.36,14.43,6,4,15.52-.1,18.22-7.1C214.22,189.69,214.22,189.69,201.59,189.74Zm46.75-35c-22.25-2.06-25.7.94-20.56,16.73A124.89,124.89,0,0,1,248.34,154.73Z"/><path d="M358,231.1c.13,36.31-29.26,66.13-65.25,66.21s-65.72-29.61-65.74-65.79,29.74-65.89,65.71-65.91C328.32,165.59,357.92,195.29,358,231.1Zm-12.49.61c.1-29.13-23.57-53.24-52.55-53.54-29.16-.29-53.56,24.1-53.46,53.44.09,29.1,24,53.12,53,53.13S345.44,260.79,345.55,231.71Z"/><path d="M286.31,211.13c0-5.46,0-10.91,0-16.37,0-4.43.49-9.25,6-9.35,6.13-.11,6.39,5,6.42,9.68,0,7.69.2,15.38,0,23.07-.16,5,1.62,7.3,6.83,7.06,5.66-.26,11.35-.12,17,.07,4,.13,7.64,1.56,7.56,6.32s-3.67,6-7.74,6.07c-9.13.06-18.26,0-27.39,0-5.78,0-8.66-2.92-8.67-8.71,0-6,0-11.9,0-17.86Z"/></g></g></svg>