<svg xmlns="http://www.w3.org/2000/svg" viewBox="0 0 380 350"><g id="Слой_2" data-name="Слой 2"><g id="Слой_1-2" data-name="Слой 1"><path d="M380,206.36c-2.28,2-4.65,4-7.93,2.38-3.7-1.81-4.08-5.32-4.08-8.91,0-18.42-.21-36.84.08-55.26.09-6.21-2.07-8.13-8.17-8.12q-148.23.21-296.46,0c-6.28,0-8,2.25-8,8.26.09,15.29-.14,15.29,14.47,12.73,30.11-5.29,61.61,20.27,62.83,51,.09,2.24,0,4.49.13,6.72.17,4.21-.69,8.9.88,12.49,1.87,4.27,7.13,1.57,10.81,2.48,6.71,1.67,10.33,6.54,10.37,15.17.09,23.64.34,47.29-.13,70.93-.16,7.79,2.52,9.58,9.8,9.55,64.48-.25,129-.14,193.44-.15,9.85,0,9.89,0,9.9-10,0-27.38-.08-54.76.07-82.14.05-9.44,3.77-11.66,12-7.74V330.35c-4.12,6.25-10,7.94-17.24,7.93q-99.35-.24-198.67-.06c-3.77,0-8-1.2-10.45,3.5-3.38,6.61-9.24,8.31-16.16,8.28-24.22-.11-48.43,0-72.65,0-16.31,0-32.62.11-48.92-.06C6.29,349.79.24,345,.17,336.66q-.36-47,0-94.1c.05-7.39,4.88-12.61,12.13-12.41,8.24.22,9.11-3.82,9-10.53-.29-18.37,4.5-35,18.47-47.84,3.15-2.9,3.31-6.41,3.3-10.2,0-22.41,0-44.81,0-67.22,0-7.93,3-13.62,11.11-15.3,4.42-.92,5.34-3.64,5.31-7.54-.07-10,0-19.92,0-29.88,0-12.33,1.8-14.42,13.94-14.72,5.11-.12,7.31-2,6.92-7.08-.15-2,0-4,0-6C80.52,3,83.34.09,94,0c20-.08,40,0,60.05,0H333.46c13.46,0,15.64,2.2,15.66,15.44,0,10.46,0,20.92,0,31.37,0,3-.26,5.8,3.93,6.81C363.65,56.19,364,56.84,364,67.57c0,16.43,0,32.86,0,49.29,0,2.9-.61,6.41,3.58,7.07,5.26.83,8.75,4.34,12.36,7.74ZM230.72,66.22q-51.1,0-102.21,0c-4.69,0-9.39-.16-14.07.08-5,.25-7.36,4.32-5.34,8.75C110.71,78.57,114,78,116.82,78c17,.07,34.07.16,51.11,0,9.37-.08,15.89,3.55,19.84,12.49,4.21,9.53,9.36,18.64,13.86,28.05,1.84,3.84,4.36,5.46,8.65,5.45q67-.15,134.06,0c5.49,0,7.38-2,7.28-7.46-.25-13.43-.06-26.86-.08-40.29,0-10,0-10-9.72-10.06Q286.28,66.2,230.72,66.22ZM215.05,12.58c-38,0-76.08.15-114.12-.13-6.71,0-8.55,2.3-8.24,8.69.32,6.89,4.93,5.65,8.92,5.65q77.05.08,154.12,0c2.72,0,5.45-.07,8.15.16,3.76.31,7,1.81,7,6.17s-3,6-6.92,6.14c-2.46.13-4.94.09-7.41.09H82.39C72,39.4,72,39.42,72,50.18c0,7,0,13.93,0,20.9,0,2-.48,4.65,1.42,5.51,6.09,2.73,12.67,2,18.84.71,4.39-.93,2.9-5.73,3-9,.37-12.42,2.53-14.63,15-14.63q45.21,0,90.41,0c36.06,0,72.12-.1,108.18.08,5.69,0,7.12-2.29,7.12-7.57s-2.11-7-7.09-6.82c-5.43.24-10.87.08-16.3,0-3.84-.09-7.1-1.65-7.25-5.88-.16-4.71,3.31-6.33,7.41-6.49,4.44-.17,8.89-.1,13.34-.1,20.75,0,20.76,0,22.24,20.78.19,2.8.1,5.74,4,5.83,4.49.11,4.27-3.22,4.29-6.23,0-8.46-.37-16.95.15-25.38.43-7.07-1.81-9.47-9.09-9.4C290.13,12.76,252.59,12.58,215.05,12.58ZM77,306.1c19.51,0,39-.11,58.52.07,5,0,7.25-1.66,7-6.9-.27-6.46-.18-12.94,0-19.4.09-4.46-1.91-6.28-6.24-6.24-5.43,0-10.88.05-16.27-.45-3.48-.31-6-2.53-5.93-6.43.07-3.54,2.46-5.53,5.64-5.88a77.47,77.47,0,0,1,14-.57c6.83.49,9-2.26,9-9.05s-2.12-9.06-8.94-9q-56.3.39-112.6,0c-6.88-.05-8.88,2.33-8.91,9.07s2.33,9.1,9,9c21.73-.31,43.46-.15,65.19-.07a36.21,36.21,0,0,1,8.76,1,5.71,5.71,0,0,1,4.38,6.17,5.4,5.4,0,0,1-4.47,5.28,41.74,41.74,0,0,1-8.78.91c-21.73.07-43.46.26-65.18-.08-6.87-.11-9.41,2.32-8.83,9.09a79.72,79.72,0,0,1,0,14.16c-.64,7,1.75,9.68,9.08,9.5C40,305.8,58.48,306.1,77,306.1ZM122.8,124q29.25,0,58.48,0c9.05,0,9.15-.19,4.93-8.55-3-6-6.38-11.79-9.19-17.87-2-4.4-4.93-6.38-9.79-6.19-6.65.25-13.32,0-20,0-27.87,0-55.75.12-83.63-.09-6.08,0-8.55,2-8.12,8.22a118,118,0,0,1,0,16.39c-.44,6.21,2,8.24,8.11,8.16C83.33,123.78,103.07,124,122.8,124ZM77.48,318.67c-18.76,0-37.52.33-56.27-.15-7.63-.2-9,3.05-8.93,9.74.07,6.35,1.28,9.36,8.6,9.29q56.64-.51,113.28,0c7.4.07,8.42-3.07,8.52-9.34.11-6.74-1.34-9.9-8.94-9.7C115,319,96.23,318.67,77.48,318.67Zm42.77-102.42c.08-21.86-10-37.35-28.46-44.21-17.07-6.33-35.37-1-48,13.87-8.32,9.77-10,21.37-9.16,33.59.26,3.69-2.4,9.74,4.2,10,6.88.24,4.37-6,4.53-9.61.26-6.25.6-12.43,2.71-18.35,5.21-14.61,20.8-24.18,35.72-22,16.43,2.4,28.27,15.51,28.81,32,.15,4.72.08,9.45.19,14.18.06,2.69,1.51,4,4.22,4.07s5.07-.53,5.24-3.82S120.25,219.48,120.25,216.25ZM77.38,229.84c22.51,0,22.51,0,20.65-19.07a20.69,20.69,0,0,0-31-15.93c-9,5.32-14.22,19.72-9.73,31.27,3,7.63,10.9,2.32,16.43,3.69A15.66,15.66,0,0,0,77.38,229.84Z"/><path d="M290.3,259.68c14.3,0,28.6-.08,42.9,0,9.17.07,12.54,3.36,12.8,12.48.19,6.45.26,12.92-.07,19.37-.38,7.56-4.13,11.75-11.58,11.81q-44.75.39-89.49,0c-8-.07-11.68-4.29-11.9-12.18-.19-6.7-.2-13.41,0-20.11.24-7.92,3.53-11.27,11.48-11.36C259.73,259.57,275,259.69,290.3,259.68ZM289.17,291c12.56,0,25.13-.27,37.68.1,6.71.2,7.14-3.6,6.76-8.53-.35-4.55,1.93-10.46-6.41-10.4q-37.68.26-75.37,0c-8.3-.05-6.09,5.85-6.44,10.43-.38,5,.19,8.7,6.84,8.5C264.53,290.76,276.86,291,289.17,291Z"/><path d="M279.92,97.49q-18.53,0-37.05,0c-3,0-6-.07-8.22-2.55a5.52,5.52,0,0,1-1.12-6.22c1.61-3.63,4.89-3.74,8.18-3.74H304c4.69,0,9.39,0,14.08,0,4.34,0,9.32.11,9.36,5.86,0,6-5,6.61-9.68,6.63C305.11,97.52,292.52,97.49,279.92,97.49Z"/></g></g></svg>