<svg xmlns="http://www.w3.org/2000/svg" viewBox="0 0 380 300"><g id="Слой_2" data-name="Слой 2"><g id="Слой_1-2" data-name="Слой 1"><path d="M0,66.81c3.58-4.38,8-5.64,13.78-5,41.62,4.91,76,38.33,83,81a3,3,0,0,0,1.07,2.06c0-5.9-.09-11.8,0-17.7.08-4.26,1.5-8.12,6.64-7.85,4.65.24,5.72,4,5.73,8,0,6.31,0,12.61.31,19,2.4-11.46,5.22-22.75,10.94-33.13,15.88-28.84,40.12-46.2,73.27-51,11-1.61,15.14,2.91,13.67,13.69-5.66,41.6-39.69,74.82-83.37,81.4-10.6,1.59-16.55,10-14.79,20.29.72,4.13,3.76,3.85,6.53,4.51,21.23,5.08,36,17.51,44.2,37.41a48.76,48.76,0,0,1,2,6.23c1.07,4.12.84,8.24-3.95,9.6-5,1.43-7-2.24-8.08-6.34a47.16,47.16,0,0,0-18.88-27.05c-15.9-11.14-37.74-11.57-54.53-.95C61.59,211,53.45,230.35,57,249.8c3.19,17.38,18.92,32.79,37.24,36.48,23,4.63,44.79-6.63,54.43-28,1.92-4.25,3-10.85,9.79-8s3.22,8.61,1.44,13.25c-3.46,9.05-9.92,16.07-18.38,24,11.61,0,21.54.3,31.43-.15,4.19-.19,3.18-4.31,3.19-7,.09-16.5,0-33,.06-49.5,0-11.63,2.68-14.25,14.25-14.35,22.2-.18,23.28.88,23.29,22.92,0,13.34-.05,26.69,0,40,0,3.72-1,8.32,5.38,8.2,6-.11,4.74-4.57,4.75-7.94.08-33.24,0-66.49.06-99.73,0-12.83,3.05-15.75,16.27-15.8,20.11-.08,21.36,1.16,21.36,21q0,47.32,0,94.64c0,2.36-.66,5,1.4,6.9,2.68,2.47,7.93.64,8.58-3.05a38.46,38.46,0,0,0,.21-6.54q0-57.87,0-115.75c0-3.62-.07-7.38.85-10.83,2.75-10.28,8-8.48,26.78-8.26,6.92.09,9.65,3.84,9.86,11.85.07,2.91,0,5.82,0,8.74q0,58.23.05,116.47c0,2.73-1.16,6,2.2,7.88,4.37,2.4,8.7-.31,8.76-5.69.14-11.41.06-22.81.06-34.22q0-63.69,0-127.39c0-13.1,2.63-15.59,16.15-15.63,20.8,0,21.49.63,21.48,21.38,0,6.07.06,12.14-.12,18.2-.12,3.71-1.69,7-5.91,7.11-4.69.15-6.31-3.21-6.37-7.29-.11-6.55-.16-13.11-.05-19.66.07-4.29-.27-7.57-6.14-7.59-5.5,0-6.59,2.54-6.59,7.2q.13,78.61,0,157.24c0,4.9,1.51,7,6.81,6.93s5.93-2.87,5.93-7q-.11-51.67,0-103.37c0-4.79-1.8-11.84,5.73-12.05,8-.22,6.63,7,6.64,12.11.1,33.48,0,67,.06,100.46,0,9.7,0,9.55,9.76,9.82,4.83.14,12-1.89,12.14,5.65.1,7.81-7.21,6.48-12.43,6.49q-129.93.09-259.85,0c-35.89,0-61-22.63-64.29-57.48-2.35-25,17.49-52.24,43.59-59.17,6.56-1.74,12.37-2.68,10.91-11.72-1.09-6.7-6.17-13.16-13.42-14.27-22.74-3.44-42.41-12.7-58.51-29C12.52,114.62,5,97.94,0,79.91Zm127.22,64.28,1.76,1.28c1.75-2,3.36-4.21,5.26-6.1,7.66-7.58,15.34-15.14,23.16-22.56,2.79-2.64,6.25-3.41,9.18-.28,2.61,2.8,1.71,5.88-.62,8.52-1.62,1.83-3.4,3.52-5.16,5.22-8,7.76-16.1,15.5-25.29,24.35,28-5.74,55.85-35.41,59.65-61.78.69-4.77-1.25-5.62-5.39-4.58C158.64,82.93,137.88,101.65,127.22,131.09Zm-48.37.39,1.94-1.79C69.63,100.81,48.85,82.42,18,75c-4-1-5.25.1-4.63,4.38,3.89,26.66,30.47,55.41,57.47,61.69-.91-2.76-3.34-4.15-5.17-6-7.6-7.62-15.34-15.09-23-22.69-2.69-2.69-3.84-5.89-.87-9s6.27-2.32,9.27,0a54,54,0,0,1,5.37,5Q67.68,119.92,78.85,131.48Zm218,90.46q0-29.81,0-59.59c0-3.94.39-7.94-5.72-8-6-.06-6,3.63-6,7.75q0,58.86,0,117.72c0,3.94-.39,7.87,5.75,7.94s6-3.6,6-7.7Q296.86,251,296.89,221.94ZM249.1,232.88c0-16.7-.09-33.4.06-50.1,0-4.62-1.61-6.46-6.46-6.48-5,0-6.29,2.22-6.27,6.66q.13,49,0,98c0,4.27.88,6.78,6.08,6.85,5.42.07,6.71-2.27,6.66-7C249,264.82,249.11,248.85,249.1,232.88Zm-48.71,25.73c0-8-.07-15.94,0-23.91.06-4.29-1.82-6.06-6.24-6s-5.49,2.27-5.48,6q.06,23.55,0,47.1c0,3.7,1.15,5.89,5.47,6s6.32-1.63,6.26-5.95C200.31,274.07,200.4,266.34,200.39,258.61Z"/><path d="M174.67,160.07c-.22-5.56,3.67-9.86,8-14.07Q240.42,89.45,298.19,32.88c4.41-4.3,7-7.3,1.4-12.91C295,15.3,297.33,8.29,304,7c14.78-2.86,29.7-5.06,44.65-6.93,5.66-.71,9.91,4.15,9.07,9.91-2,13.67-4.2,27.33-6.85,40.89-1.62,8.25-8.32,10.67-14.75,5.15-4.51-3.86-6.9-2.45-10.35,1C305,77.5,284.15,97.86,263.33,118.27c-1.23,1.2-2.44,2.41-3.68,3.6-3.36,3.2-7.16,6.39-11.41,2-4-4.06-.65-7.69,2.37-10.67Q284.39,80,318.27,46.8c2.28-2.22,4.53-4.49,7-6.53s5.78-3.59,8.88-1.71c5.15,3.11,6.31.59,6.93-3.83q1.09-7.92,2.58-15.79c.81-4.24-.51-6-5.07-5.17-5.84,1-11.75,1.65-17.59,2.65-2.21.38-5.86.49-3.57,4.27,3.84,6.34.38,10.47-3.87,14.62Q291.2,57.14,268.91,79l-74,72.56c-1.58,1.54-3.15,3.09-4.69,4.66-2.61,2.67-4.39,5.94-1.54,9,3.2,3.47,6.81,1.77,9.7-1,8.81-8.51,17.52-17.13,26.31-25.66a47.75,47.75,0,0,1,5.54-4.81c2.69-1.91,5.6-2.14,8.06.39s2.49,5.6.23,7.93c-11.75,12.12-23.13,24.68-36.51,35.08-5.35,4.16-12.24,3.46-18.33.18S174.36,168.06,174.67,160.07Z"/><path d="M126.56,252c-.31,6.1-3.87,11.55-11.2,14-3.17,1.06-5.13,2.26-5.31,5.83a5.51,5.51,0,0,1-5,5.5,5.62,5.62,0,0,1-6.6-4.58c-1-4.67-4.36-5.27-8.15-5.8s-6.92-2.11-6.66-6.34,3.53-5.64,7.25-5.89c3.94-.27,7.94.18,11.84-.3s10.59,2.38,10.55-4.17c0-5.72-6.38-3.5-10.22-4-2-.24-4,0-5.91-.16a16.71,16.71,0,0,1-15.3-13.61,15.87,15.87,0,0,1,9.29-17.34c3.79-1.69,6.8-3.18,7.43-7.82.38-2.81,2.83-4.56,6-4.3s5.23,2.14,5.42,5.06c.29,4.6,2.89,5.53,6.89,5.44s7.75,1.33,7.74,5.91c0,5-4,6.12-8.32,6.22-5.43.12-10.87,0-16.3.19-2.61.07-5.23.89-5.27,3.93s2.53,3.9,5.16,4c3.7.2,7.43,0,11.1.35C120.38,235.21,126.6,241.87,126.56,252Z"/></g></g></svg>