<svg width="42" height="42" viewBox="0 0 42 42" fill="none" xmlns="http://www.w3.org/2000/svg">
<path d="M14.4375 15.5449C13.9844 15.5449 13.6172 15.9123 13.6172 16.3652V18.0606C13.6172 18.5136 13.9844 18.8809 14.4375 18.8809C14.8906 18.8809 15.2578 18.5136 15.2578 18.0606V16.3652C15.2578 15.9123 14.8906 15.5449 14.4375 15.5449Z" fill="#1A990F"/>
<path d="M17.7188 15.5449C17.2657 15.5449 16.8984 15.9123 16.8984 16.3652V18.0606C16.8984 18.5136 17.2657 18.8809 17.7188 18.8809C18.1718 18.8809 18.5391 18.5136 18.5391 18.0606V16.3652C18.5391 15.9123 18.1718 15.5449 17.7188 15.5449Z" fill="#1A990F"/>
<path d="M21 15.5449C20.5469 15.5449 20.1797 15.9123 20.1797 16.3652V18.0606C20.1797 18.5136 20.5469 18.8809 21 18.8809C21.4531 18.8809 21.8203 18.5136 21.8203 18.0606V16.3652C21.8203 15.9123 21.4531 15.5449 21 15.5449Z" fill="#1A990F"/>
<path d="M24.2812 15.5449C23.8282 15.5449 23.4609 15.9123 23.4609 16.3652V18.0606C23.4609 18.5136 23.8282 18.8809 24.2812 18.8809C24.7343 18.8809 25.1016 18.5136 25.1016 18.0606V16.3652C25.1016 15.9123 24.7343 15.5449 24.2812 15.5449Z" fill="#1A990F"/>
<path d="M27.5625 15.5449C27.1094 15.5449 26.7422 15.9123 26.7422 16.3652V18.0606C26.7422 18.5136 27.1094 18.8809 27.5625 18.8809C28.0156 18.8809 28.3828 18.5136 28.3828 18.0606V16.3652C28.3828 15.9123 28.0156 15.5449 27.5625 15.5449Z" fill="#1A990F"/>
<path d="M9.51562 37.0918C9.29988 37.0918 9.08824 37.1796 8.93566 37.3322C8.78309 37.4847 8.69531 37.6964 8.69531 37.9121C8.69531 38.1279 8.78309 38.3395 8.93566 38.4921C9.08824 38.6446 9.29988 38.7324 9.51562 38.7324C9.73137 38.7324 9.94301 38.6447 10.0956 38.4921C10.2482 38.3394 10.3359 38.1279 10.3359 37.9121C10.3359 37.6964 10.2482 37.4847 10.0956 37.3322C9.94301 37.1796 9.73137 37.0918 9.51562 37.0918Z" fill="#1A990F"/>
<path d="M9.51562 30.3105C9.06257 30.3105 8.69531 30.6779 8.69531 31.1309V34.6841C8.69531 35.1371 9.06257 35.5044 9.51562 35.5044C9.96868 35.5044 10.3359 35.1371 10.3359 34.6841V31.1309C10.3359 30.6779 9.96868 30.3105 9.51562 30.3105Z" fill="#1A990F"/>
<path d="M14.1094 30.3105C13.6563 30.3105 13.2891 30.6779 13.2891 31.1309V37.9121C13.2891 38.3651 13.6563 38.7324 14.1094 38.7324C14.5624 38.7324 14.9297 38.3651 14.9297 37.9121V31.1309C14.9297 30.6779 14.5624 30.3105 14.1094 30.3105Z" fill="#1A990F"/>
<path d="M18.7031 30.3105C18.2501 30.3105 17.8828 30.6779 17.8828 31.1309V37.9121C17.8828 38.3651 18.2501 38.7324 18.7031 38.7324C19.1562 38.7324 19.5234 38.3651 19.5234 37.9121V31.1309C19.5234 30.6779 19.1562 30.3105 18.7031 30.3105Z" fill="#1A990F"/>
<path d="M23.2969 30.3105C22.8438 30.3105 22.4766 30.6779 22.4766 31.1309V37.9121C22.4766 38.3651 22.8438 38.7324 23.2969 38.7324C23.7499 38.7324 24.1172 38.3651 24.1172 37.9121V31.1309C24.1172 30.6779 23.7499 30.3105 23.2969 30.3105Z" fill="#1A990F"/>
<path d="M27.8906 30.3105C27.4376 30.3105 27.0703 30.6779 27.0703 31.1309V37.9121C27.0703 38.3651 27.4376 38.7324 27.8906 38.7324C28.3437 38.7324 28.7109 38.3651 28.7109 37.9121V31.1309C28.7109 30.6779 28.3437 30.3105 27.8906 30.3105Z" fill="#1A990F"/>
<path d="M32.4844 30.3101C32.2686 30.3101 32.057 30.3978 31.9044 30.5505C31.7518 30.7039 31.6641 30.9146 31.6641 31.1304C31.6641 31.347 31.7518 31.5578 31.9044 31.7103C32.057 31.8637 32.2686 31.9507 32.4844 31.9507C32.7001 31.9507 32.9118 31.8637 33.0643 31.7103C33.2169 31.5578 33.3047 31.3469 33.3047 31.1304C33.3047 30.9146 33.2169 30.7039 33.0643 30.5505C32.9118 30.3978 32.7001 30.3101 32.4844 30.3101Z" fill="#1A990F"/>
<path d="M32.4844 33.5918C32.0313 33.5918 31.6641 33.9591 31.6641 34.4121V37.9121C31.6641 38.3651 32.0313 38.7324 32.4844 38.7324C32.9374 38.7324 33.3047 38.3651 33.3047 37.9121V34.4121C33.3047 33.9591 32.9374 33.5918 32.4844 33.5918Z" fill="#1A990F"/>
<path d="M12.7969 22.3945C12.3438 22.3945 11.9766 22.7619 11.9766 23.2148V24.9102C11.9766 25.3632 12.3438 25.7305 12.7969 25.7305C13.2499 25.7305 13.6172 25.3632 13.6172 24.9102V23.2148C13.6172 22.7619 13.2499 22.3945 12.7969 22.3945Z" fill="#1A990F"/>
<path d="M16.0781 22.3945C15.6251 22.3945 15.2578 22.7619 15.2578 23.2148V24.9102C15.2578 25.3632 15.6251 25.7305 16.0781 25.7305C16.5312 25.7305 16.8984 25.3632 16.8984 24.9102V23.2148C16.8984 22.7619 16.5312 22.3945 16.0781 22.3945Z" fill="#1A990F"/>
<path d="M19.3594 22.3945C18.9063 22.3945 18.5391 22.7619 18.5391 23.2148V24.9102C18.5391 25.3632 18.9063 25.7305 19.3594 25.7305C19.8124 25.7305 20.1797 25.3632 20.1797 24.9102V23.2148C20.1797 22.7619 19.8124 22.3945 19.3594 22.3945Z" fill="#1A990F"/>
<path d="M22.6406 22.3945C22.1876 22.3945 21.8203 22.7619 21.8203 23.2148V24.9102C21.8203 25.3632 22.1876 25.7305 22.6406 25.7305C23.0937 25.7305 23.4609 25.3632 23.4609 24.9102V23.2148C23.4609 22.7619 23.0937 22.3945 22.6406 22.3945Z" fill="#1A990F"/>
<path d="M25.9219 22.3945C25.4688 22.3945 25.1016 22.7619 25.1016 23.2148V24.9102C25.1016 25.3632 25.4688 25.7305 25.9219 25.7305C26.3749 25.7305 26.7422 25.3632 26.7422 24.9102V23.2148C26.7422 22.7619 26.3749 22.3945 25.9219 22.3945Z" fill="#1A990F"/>
<path d="M29.2031 22.3945C28.7501 22.3945 28.3828 22.7619 28.3828 23.2148V24.9102C28.3828 25.3632 28.7501 25.7305 29.2031 25.7305C29.6562 25.7305 30.0234 25.3632 30.0234 24.9102V23.2148C30.0234 22.7619 29.6562 22.3945 29.2031 22.3945Z" fill="#1A990F"/>
<path d="M41.1797 29.1894H37.8984V27.3847C37.8984 26.9317 37.5312 26.5644 37.0781 26.5644H33.3047V20.9863H33.8789C34.332 20.9863 34.6992 20.6189 34.6992 20.166C34.6992 19.713 34.332 19.3456 33.8789 19.3456H31.582V15.0758C31.9965 15.0347 32.3203 14.685 32.3203 14.2597C32.3203 13.8067 31.9531 13.4394 31.5 13.4394H30.7617H29.4765V12.7285C29.4765 8.33123 26.1108 4.7057 21.8203 4.29168V0.833984C21.8203 0.381008 21.4531 0.0136719 21 0.0136719C20.5469 0.0136719 20.1797 0.381008 20.1797 0.833984V4.29168C15.8891 4.7057 12.5235 8.33123 12.5235 12.7285V13.4394H11.2383H10.5C10.0469 13.4394 9.67969 13.8067 9.67969 14.2597C9.67969 14.685 10.0035 15.0347 10.418 15.0758V19.3456H8.12109C7.66804 19.3456 7.30078 19.713 7.30078 20.166C7.30078 20.6189 7.66804 20.9863 8.12109 20.9863H8.69531V26.5644H4.92188C4.46882 26.5644 4.10156 26.9317 4.10156 27.3847V29.1894H0.820312C0.367254 29.1894 0 29.5567 0 30.0097V41.166C0 41.6189 0.367254 41.9863 0.820312 41.9863H41.1797C41.6327 41.9863 42 41.6189 42 41.166V30.0097C42 29.5567 41.6327 29.1894 41.1797 29.1894ZM14.1641 12.7285C14.1641 8.95918 17.2307 5.89252 21 5.89252C24.7693 5.89252 27.8359 8.95918 27.8359 12.7285V13.4394H14.1641V12.7285ZM12.0586 15.08H13.3438H28.6563H29.9414V19.3456H12.0586V15.08ZM10.3359 20.9863H31.6641V26.5644H10.3359V20.9863ZM1.64062 30.83H4.10156V40.3456H1.64062V30.83ZM5.74219 30.0097V28.205H36.2578V30.0097V40.3456H5.74219V30.0097ZM40.3594 40.3456H37.8984V30.83H40.3594V40.3456Z" fill="#1A990F"/>
</svg>
