<svg width="36" height="42" viewBox="0 0 36 42" fill="none" xmlns="http://www.w3.org/2000/svg">
<path d="M14.3991 8.76427H14.4199C14.9077 8.76427 15.3033 8.36863 15.3033 7.88079C15.3033 7.39287 14.9077 6.99731 14.4199 6.99731H14.3991C13.9112 6.99731 13.5156 7.39287 13.5156 7.88079C13.5156 8.36879 13.9111 8.76427 14.3991 8.76427Z" fill="#1A990F"/>
<path d="M13.6132 36.7349H13.5925C13.1045 36.7349 12.709 37.1304 12.709 37.6183C12.709 38.1062 13.1045 38.5018 13.5925 38.5018H13.6132C14.1011 38.5018 14.4967 38.1062 14.4967 37.6183C14.4967 37.1303 14.1012 36.7349 13.6132 36.7349Z" fill="#1A990F"/>
<path d="M11.0802 36.7344H4.57586C4.08794 36.7344 3.69238 37.1299 3.69238 37.6179C3.69238 38.1057 4.08794 38.5013 4.57586 38.5013H11.0802C11.568 38.5013 11.9637 38.1057 11.9637 37.6179C11.9637 37.1299 11.5682 36.7344 11.0802 36.7344Z" fill="#1A990F"/>
<path d="M34.922 0H4.57612C4.0882 0 3.69264 0.395637 3.69264 0.883477V3.49855H1.07781C0.58989 3.49855 0.194336 3.89419 0.194336 4.38203V41.1165C0.194336 41.6044 0.58989 42 1.07781 42H31.4236C31.9116 42 32.3071 41.6044 32.3071 41.1165V38.5014H34.9222C35.4101 38.5014 35.8057 38.1058 35.8057 37.618V0.883477C35.8055 0.395637 35.4101 0 34.922 0ZM30.5401 40.233H30.54H1.96121V5.2655H22.5543V6.9971H16.9334C16.4455 6.9971 16.0499 7.39266 16.0499 7.88058C16.0499 8.36842 16.4455 8.76405 16.9334 8.76405H22.5543V12.3679C22.5543 12.8558 22.9499 13.2514 23.4377 13.2514H30.5401V40.233ZM24.3212 11.4845V6.51492L26.8058 8.99948L29.2906 11.4845H24.3212ZM34.0385 36.7345H32.3069V12.403C32.3074 12.3913 32.3088 12.3798 32.3088 12.368C32.3088 12.1072 32.1957 11.8728 32.0161 11.711L24.0626 3.75728C24.0347 3.72939 24.0044 3.70429 23.9733 3.68058C23.9655 3.67467 23.9577 3.66885 23.9498 3.66319C23.9186 3.64104 23.8865 3.6202 23.8528 3.60224C23.8508 3.60117 23.8489 3.60035 23.8468 3.59945C23.8147 3.58272 23.7816 3.56852 23.748 3.55589C23.7385 3.55236 23.7293 3.549 23.7199 3.5458C23.6842 3.53382 23.648 3.52316 23.6109 3.51578C23.6095 3.51553 23.6082 3.51545 23.6067 3.51512C23.571 3.50815 23.5348 3.50405 23.4983 3.50159C23.4877 3.50085 23.4772 3.50036 23.4666 3.50003C23.457 3.4997 23.4474 3.49855 23.4378 3.49855H5.45968V1.76695H34.0386V36.7345H34.0385Z" fill="#1A990F"/>
<path d="M22.8834 18.4053C20.789 17.8316 18.5929 16.9001 16.6997 15.7824C16.4225 15.6188 16.0785 15.6187 15.8013 15.7824C13.8266 16.9483 11.804 17.8062 9.61771 18.4053C9.2338 18.5105 8.96777 18.8594 8.96777 19.2574V22.6507C8.96777 26.3363 10.6698 28.7775 12.0975 30.1765C13.5934 31.642 15.418 32.5492 16.2507 32.5492C17.0835 32.5492 18.9081 31.642 20.404 30.1765C21.8318 28.7776 23.5338 26.3363 23.5338 22.6507V19.2574C23.5336 18.8594 23.2674 18.5106 22.8834 18.4053ZM16.2506 30.7789C15.5636 30.6482 10.7346 28.4112 10.7346 22.6507V19.923C12.6643 19.3434 14.479 18.5672 16.2511 17.5636C17.9874 18.5431 19.8735 19.3494 21.7666 19.9222V22.6507H21.7667C21.7667 28.4115 16.9375 30.6481 16.2506 30.7789Z" fill="#1A990F"/>
<path d="M18.5066 21.5548L15.2817 24.7798L13.9946 23.4927C13.6495 23.1477 13.0901 23.1477 12.7451 23.4927C12.4001 23.8377 12.4001 24.3971 12.7451 24.7422L14.6568 26.654C14.8293 26.8264 15.0555 26.9128 15.2817 26.9128C15.5077 26.9128 15.7338 26.8265 15.9063 26.654L19.756 22.8043C20.1009 22.4593 20.1009 21.9 19.756 21.5548C19.411 21.2099 18.8515 21.2099 18.5066 21.5548Z" fill="#1A990F"/>
</svg>
