<svg width="42" height="42" viewBox="0 0 42 42" fill="none" xmlns="http://www.w3.org/2000/svg">
<path d="M41.8692 12.1651C41.7349 11.9464 41.5121 11.797 41.2589 11.7556C37.8649 11.2012 35.4014 8.29833 35.4014 4.85334C35.4014 4.45065 35.1291 4.0989 34.7393 3.998L21.2214 0.499369C21.076 0.461799 20.9239 0.461799 20.7786 0.499369L7.26057 3.99817C6.87076 4.09907 6.59849 4.45073 6.59849 4.85342C6.59849 8.29841 4.1351 11.2013 0.741052 11.7557C0.487822 11.7971 0.265025 11.9465 0.13074 12.1652C-0.00354556 12.384 -0.036276 12.6502 0.0413255 12.8948C3.13801 22.6594 11.3397 34.0892 20.45 41.3365C20.611 41.4645 20.8055 41.5285 21.0001 41.5285C21.1946 41.5285 21.3891 41.4645 21.5501 41.3365C30.6607 34.0887 38.8622 22.6589 41.9586 12.8947C42.0362 12.6501 42.0036 12.3838 41.8692 12.1651ZM21 39.51C12.6461 32.6788 5.16729 22.3256 2.02886 13.2739C3.66202 12.8034 5.13719 11.86 6.25667 10.5548C7.46614 9.14489 8.1922 7.38745 8.33813 5.54446L21 2.26722L33.6616 5.54437C33.8074 7.38721 34.5336 9.14481 35.7431 10.5548C36.8627 11.8598 38.3377 12.8033 39.9709 13.2739C36.8328 22.3253 29.3542 32.6784 21 39.51Z" fill="#1A990F"/>
<path d="M14.2845 7.59019C14.3591 7.59019 14.4349 7.58076 14.5104 7.56074L14.5355 7.55418C15.0072 7.42966 15.2888 6.94633 15.1643 6.47448C15.04 6.00264 14.5559 5.72111 14.0847 5.84563L14.0597 5.85219C13.5879 5.97664 13.3063 6.46005 13.4308 6.93189C13.5353 7.32818 13.893 7.59019 14.2845 7.59019Z" fill="#1A990F"/>
<path d="M21.5763 34.3411L21.556 34.3603L22.1579 35.007L21.5558 34.3605C21.1987 34.693 21.1788 35.2521 21.5114 35.6091C21.6855 35.7959 21.9214 35.8904 22.1581 35.8904C22.3737 35.8904 22.5898 35.8119 22.7601 35.6533L22.7806 35.6339C23.1377 35.3014 23.1576 34.7423 22.825 34.3853C22.4923 34.0282 21.9334 34.0085 21.5763 34.3411Z" fill="#1A990F"/>
<path d="M11.762 6.44667L10.4105 6.7967C10.0983 6.8775 9.85489 7.1222 9.77557 7.43474C9.15303 9.88895 7.85382 11.7335 5.56286 13.4155C5.16952 13.7043 5.08478 14.2572 5.37353 14.6505C5.54661 14.8863 5.81469 15.0111 6.0863 15.0111C6.26783 15.0111 6.45101 14.9553 6.60842 14.8398C9.09446 13.0146 10.5735 11.0052 11.3485 8.37891L12.2048 8.15718C12.6772 8.03479 12.9609 7.5527 12.8385 7.08036C12.7165 6.60802 12.2337 6.32428 11.762 6.44667Z" fill="#1A990F"/>
<path d="M29.0924 27.3332C28.71 27.0299 28.1546 27.0941 27.8511 27.4764C26.4235 29.2763 24.9063 31.0016 23.342 32.6042C23.0013 32.9534 23.008 33.5127 23.3572 33.8536C23.529 34.0212 23.7517 34.1048 23.9742 34.1048C24.2039 34.1048 24.4334 34.0158 24.6065 33.8384C26.2129 32.1928 27.7703 30.4216 29.2356 28.5745C29.5387 28.1923 29.4746 27.6365 29.0924 27.3332Z" fill="#1A990F"/>
<path d="M28.4409 22.7312L29.3481 15.6503C29.4431 14.9086 29.2471 14.2179 28.7965 13.7059C28.4435 13.3048 27.7721 12.8266 26.5787 12.8266H22.7949V10.7699C22.7949 9.31829 21.6139 8.13721 20.1622 8.13721H18.4128C17.9249 8.13721 17.5293 8.53276 17.5293 9.02068V12.8265H14.3307C13.8428 12.8265 13.4473 13.2221 13.4473 13.71V23.5494C13.4473 24.0373 13.8428 24.4329 14.3307 24.4329H18.4093C18.4106 24.4329 18.4116 24.433 18.4128 24.433H26.5725C27.5287 24.4332 28.3145 23.7174 28.4409 22.7312ZM17.5292 22.6661H15.2141V14.5936H17.5292V22.6661ZM19.2963 22.6663V13.7102H19.2963V9.90432H20.1622C20.6395 9.90432 21.0279 10.2927 21.0279 10.7701V13.7102C21.0279 14.1982 21.4235 14.5937 21.9114 14.5937H26.5787C26.9948 14.5937 27.3114 14.6931 27.4703 14.8735C27.5838 15.0025 27.626 15.1884 27.5955 15.4259L26.6883 22.5068C26.6862 22.5231 26.6651 22.6663 26.5726 22.6663H19.2963V22.6663Z" fill="#1A990F"/>
</svg>
