<svg width="41" height="27" viewBox="0 0 41 27" fill="none" xmlns="http://www.w3.org/2000/svg">
<path d="M40.9546 13.4344L37.1024 2.45873C36.9703 2.08221 36.5811 1.86056 36.1898 1.93871L32.1776 2.74133L25.1255 0.643538C24.1076 0.340685 22.9922 0.160591 21.7345 0.886814L20.4777 1.61248L19.2208 0.886814C17.963 0.160591 16.8476 0.340765 15.8298 0.643618L8.80278 2.73404L5.15437 1.77167C4.75766 1.66709 4.34575 1.87929 4.20088 2.26327L0.0516697 13.2606C-0.0867843 13.6275 0.0608786 14.0407 0.400487 14.2368L3.84999 16.2283C3.60527 16.7974 3.55834 17.4292 3.72186 18.0395C3.91413 18.7571 4.37265 19.356 5.01287 19.7256C5.52024 20.0185 6.08295 20.1323 6.62683 20.0871C6.64933 21.0236 7.14461 21.9273 8.01345 22.4289C8.82016 22.8948 9.76595 22.9082 10.555 22.5487C10.7805 23.0947 11.1807 23.5734 11.7307 23.8909C12.371 24.2606 13.1188 24.3582 13.8365 24.1659C14.0475 24.1094 14.2482 24.0299 14.4357 23.9294C14.6741 24.443 15.0624 24.8696 15.5608 25.1573C15.9969 25.4091 16.4735 25.5287 16.9441 25.5287C17.6103 25.5287 18.2641 25.2885 18.7737 24.8446L21.2081 26.25C21.644 26.5017 22.1206 26.6213 22.5912 26.6212C23.5513 26.6212 24.4864 26.1234 24.9999 25.2339C25.2124 24.8657 25.3309 24.4686 25.3625 24.0705C25.942 24.3306 26.5893 24.3828 27.214 24.2155C27.9316 24.0231 28.5304 23.5646 28.9001 22.9243C29.1548 22.4831 29.2742 22.0003 29.2713 21.5242C30.3403 21.6506 31.4341 21.146 32.0056 20.156C32.2245 19.7769 32.3436 19.3669 32.3709 18.9569C33.6064 19.3937 35.0205 18.9022 35.699 17.727C35.9934 17.2172 36.1071 16.6518 36.0602 16.1054L40.4798 14.4494C40.888 14.2965 41.0989 13.8454 40.9546 13.4344ZM5.81373 18.3387C5.54394 18.183 5.35048 17.9295 5.26888 17.625C5.1872 17.3206 5.22812 17.0043 5.38395 16.7345L6.50199 14.7979C6.65774 14.5281 6.91119 14.3345 7.21572 14.253C7.52018 14.1714 7.83648 14.2123 8.10618 14.3681C8.66609 14.6914 8.85931 15.4101 8.537 15.9706L7.41728 17.9099C7.4172 17.9101 7.41712 17.9102 7.41704 17.9103C7.09288 18.4698 6.37371 18.662 5.81373 18.3387ZM10.4185 20.6121C10.0947 21.1728 9.37533 21.3657 8.81431 21.042C8.25353 20.7182 8.06078 19.9986 8.38437 19.4379L8.8031 18.7127C8.80318 18.7125 8.80326 18.7125 8.80334 18.7124L9.92394 16.7715C9.92402 16.7713 9.92418 16.7711 9.92426 16.771L9.92466 16.7702C9.92474 16.7701 9.92474 16.7701 9.92482 16.77L10.9134 15.0576C11.0691 14.7879 11.3226 14.5944 11.627 14.5128C11.9316 14.4312 12.2477 14.4721 12.5176 14.628C12.7874 14.7837 12.9809 15.0371 13.0625 15.3416C13.1441 15.6461 13.1033 15.9623 12.9474 16.2321L12.6527 16.7425C12.6521 16.7434 12.6516 16.7442 12.6511 16.7451C12.651 16.7452 12.651 16.7454 12.6509 16.7454L10.7149 20.0988C10.7149 20.0989 10.7148 20.0989 10.7148 20.099L10.7146 20.0992C10.7145 20.0994 10.7143 20.0997 10.7142 20.1L10.4185 20.6121ZM14.1358 22.0742C13.98 22.3439 13.7267 22.5374 13.4221 22.619C13.1175 22.7006 12.8013 22.6596 12.5316 22.5039C11.9714 22.1805 11.7785 21.4619 12.1008 20.9014L12.1017 20.9C12.1017 20.8999 12.1017 20.8999 12.1018 20.8999C12.102 20.8996 12.1021 20.8993 12.1022 20.899L14.0377 17.5465C14.0378 17.5463 14.038 17.5461 14.0381 17.5459C14.3619 16.9851 15.0815 16.7923 15.6423 17.1161C15.9121 17.2719 16.1055 17.5253 16.1872 17.8298C16.2688 18.1342 16.228 18.4505 16.0721 18.7202L15.6632 19.4286C15.6631 19.4287 15.663 19.4288 15.6629 19.4289L14.545 21.3653C14.545 21.3654 14.5449 21.3654 14.5448 21.3655C14.5443 21.3663 14.5439 21.3671 14.5434 21.3679L14.1358 22.0742ZM16.3618 23.7704C16.092 23.6146 15.8984 23.3612 15.8168 23.0567C15.7352 22.7523 15.7761 22.4361 15.9319 22.1662L17.05 20.2296C17.3739 19.6689 18.0931 19.476 18.6542 19.7998C19.2149 20.1235 19.4078 20.8432 19.0841 21.4039L17.966 23.3406C17.6422 23.9014 16.9226 24.0942 16.3618 23.7704ZM23.6131 24.4333C23.2893 24.9941 22.5695 25.1867 22.0089 24.8631L19.7044 23.5326L20.471 22.2048C20.6128 21.9591 20.7125 21.7005 20.7728 21.4373L23.1834 22.8292C23.1835 22.8292 23.1835 22.8292 23.1836 22.8292C23.1837 22.8292 23.1837 22.8292 23.1837 22.8293L23.186 22.8306C23.7446 23.1552 23.9364 23.8735 23.6131 24.4333ZM35.4714 14.6158C35.2601 14.3483 34.9958 14.1156 34.6831 13.9351C34.3903 13.7661 33.3259 13.1264 31.4293 11.9795C31.0509 11.7507 30.5586 11.8719 30.3297 12.2505C30.1009 12.6289 30.2221 13.1212 30.6006 13.35C32.5067 14.5026 33.5801 15.1477 33.8823 15.3221C34.4431 15.6459 34.6359 16.3656 34.3122 16.9263C33.9883 17.4872 33.2685 17.6799 32.708 17.3563L30.9923 16.3656C30.9918 16.3654 30.9913 16.3651 30.9908 16.3648L30.9905 16.3646L24.6178 12.6854C24.2347 12.4641 23.745 12.5954 23.5239 12.9784C23.3027 13.3614 23.434 13.8512 23.817 14.0723L30.1891 17.7512C30.1892 17.7513 30.1893 17.7514 30.1894 17.7515C30.1896 17.7515 30.1896 17.7515 30.1897 17.7516L30.1914 17.7526C30.7503 18.077 30.942 18.7955 30.6188 19.3554C30.2949 19.9162 29.5755 20.109 29.0147 19.7853L27.887 19.1342C27.8863 19.1338 27.8856 19.1334 27.885 19.133L27.8848 19.1329L22.2902 15.9029C21.9071 15.6817 21.4175 15.813 21.1964 16.196C20.9752 16.579 21.1064 17.0688 21.4895 17.2899L27.0835 20.5196C27.0836 20.5197 27.0837 20.5197 27.0837 20.5197C27.6442 20.8436 27.8368 21.5631 27.5132 22.1238C27.3575 22.3935 27.104 22.587 26.7996 22.6686C26.4952 22.7502 26.1788 22.7094 25.909 22.5536L23.9874 21.4441C23.9864 21.4436 23.9856 21.4431 23.9846 21.4425L23.9844 21.4424L20.4554 19.4049C20.2205 19.006 19.8835 18.6604 19.4548 18.4129C18.9436 18.1177 18.3768 18.0041 17.8289 18.0521C17.822 17.8396 17.7905 17.6261 17.734 17.4152C17.5417 16.6976 17.0831 16.0987 16.4429 15.7291C15.8928 15.4115 15.2776 15.3042 14.6922 15.3821C14.6773 15.2299 14.6497 15.0778 14.6093 14.927C14.417 14.2093 13.9584 13.6105 13.3181 13.2408C12.1438 12.5627 10.6747 12.8433 9.82289 13.8375C9.59426 13.4957 9.28621 13.2001 8.90688 12.9811C8.26666 12.6114 7.51866 12.5137 6.80108 12.706C6.08335 12.8983 5.48461 13.3568 5.11489 13.9971L4.6333 14.8313L1.78999 13.1898L5.44425 3.50447L8.61139 4.33984C8.75361 4.37731 8.9032 4.37491 9.04397 4.33311L16.2863 2.17862C17.129 1.92798 17.7185 1.86888 18.4198 2.27376L18.8759 2.53713L16.0706 4.15678C14.7354 4.92768 14.2763 6.64118 15.0472 7.97647C15.793 9.2682 17.4154 9.71888 18.8211 9.02437C19.5769 8.65105 20.6762 8.15681 21.5048 7.8413C22.1097 8.20574 23.4662 9.02797 24.4348 9.61494C24.8133 9.84428 25.3056 9.72337 25.5346 9.34516C25.7638 8.96695 25.6431 8.47448 25.2649 8.2453C24.3336 7.68083 23.5198 7.18771 22.9378 6.83577C22.6462 6.65944 22.4126 6.51842 22.2516 6.42145C21.8969 6.2082 21.8127 6.15751 21.5875 6.15751C21.4977 6.15751 21.4087 6.17257 21.3239 6.20212C20.3767 6.53228 18.9949 7.15216 18.1119 7.58834C17.4733 7.90352 16.7522 7.72623 16.4342 7.17554C16.1049 6.60499 16.301 5.87292 16.8715 5.54356L22.5353 2.27368C23.2366 1.86872 23.8263 1.9279 24.6688 2.17854L31.9112 4.33303C32.0364 4.37027 32.1687 4.37635 32.2966 4.35073L35.8216 3.64556L39.1837 13.2248L35.4714 14.6158Z" fill="#1A990F"/>
<path d="M27.932 9.99756H27.9313C27.4891 9.99756 27.1309 10.3561 27.1309 10.7983C27.1309 11.2406 27.4897 11.5991 27.932 11.5991C28.3742 11.5991 28.7327 11.2406 28.7327 10.7983C28.7327 10.3561 28.3741 9.99756 27.932 9.99756Z" fill="#1A990F"/>
</svg>
