<svg xmlns="http://www.w3.org/2000/svg" viewBox="0 0 42 42"><path d="M41.2 28.2a3.2 3.2 0 0 0-4.2-.5 2280.1 2280.1 0 0 1-9.3 6 3 3 0 0 0-1.1-3.5L20 25.5c-3-2-7-2-10 0l-4 2.8-.8-.9a.8.8 0 0 0-1.2 0L.2 31.2a.8.8 0 0 0 1.2 1.1l3.2-3.1 8.2 8.2-3.1 3.2a.8.8 0 0 0 1.1 1.2l3.7-3.7 7.5 2.7a10.2 10.2 0 0 0 9.3-1.3l.5-.4a.8.8 0 0 0-.9-1.3l-.6.4a8.5 8.5 0 0 1-7.7 1l-8.7-3-6.7-6.7 3.7-2.6a7 7 0 0 1 8.1 0l6.6 4.7a1.4 1.4 0 0 1-1.5 2.5l-6-3.1-.4-.1a.8.8 0 0 0-.4 1.5l6.1 3.1c.4.2 1 .4 1.4.4h.2c1.8 0 3.6-.6 5-1.6l8-5.2a1.5 1.5 0 0 1 2.4 1.4c-.1.5-.3.8-.7 1.1L36.3 34a.8.8 0 0 0 1 1.4l3.4-2.5a3.2 3.2 0 0 0 .5-4.7ZM17.8 11.2a.8.8 0 0 0 .8-.8.8.8 0 0 0-1.4-.6.8.8 0 0 0 0 1.1l.6.3Z" /><path d="M12.3 11.8h1.5l.5 4.1a9.3 9.3 0 0 0 13.4 7s3.7-1.3 7.2.3a.8.8 0 0 0 1-.3 19 19 0 0 0 2.7-7.6.8.8 0 0 0-1.1-.8l-3.3 1c.4-.8.6-1.6.6-2.5v-.2c.4-.7.5-1.6.5-2.4v-.8c.6-1.1.8-2.5.3-3.8l-.2-.5c.4-1 .5-2.3.2-3.5L35.3.6A.8.8 0 0 0 34 .2l-2.4 2.4c-1.1 1.1-2.4 2-3.9 2.5-2.2 1-4.2 2.4-5.7 4.4v-.4c-.5-2-2.2-3.4-4.2-3.4a4.2 4.2 0 0 0-4.2 3.6l-1.7 1a.8.8 0 0 0 .4 1.5Zm22.6 9.7a11 11 0 0 0-4.4-.7c.8-.8 1.3-1.8 1.7-2.8V18l4.5-1.5c-.2 1.3-.8 3.2-1.8 5Zm-19-13.2a2.6 2.6 0 0 1 4.4 1.2l.6 2.2a.8.8 0 0 0 1.5.2l.6-1c1.3-1.9 3.2-3.4 5.3-4.2 1.7-.7 3.2-1.7 4.5-3L34 2.5A4 4 0 0 1 33 6l-1 1a.8.8 0 0 0 1 1.2l1.1-1 .1-.1c.1.8-.1 1.5-.7 2.1l-.5.5a.8.8 0 0 0 .6 1.4c0 .4-.2.7-.3 1l-1 1.3a.8.8 0 0 0 .4 1.4 4.1 4.1 0 0 1-1.4 1.7l-2.2.9a.8.8 0 0 0 .5 1.5l.4-.1a7.7 7.7 0 0 1-14-3l-.8-5.5c0-.7.1-1.5.6-2ZM34 35.7c-.2 0-.4.1-.5.3-.2.1-.3.3-.3.5a.8.8 0 0 0 .8.9.8.8 0 0 0 .9-.9c0-.2-.1-.4-.3-.5a.8.8 0 0 0-.6-.3Z"/></svg>