<svg width="42" height="42" viewBox="0 0 42 42" fill="none" xmlns="http://www.w3.org/2000/svg">
<path d="M42 11.0836V9.60935C42 8.01007 41.2368 6.54631 39.9655 5.62757C40.1427 5.23283 40.2422 4.79594 40.2422 4.33599V3.1641C40.2422 1.41938 38.8228 0 37.0781 0C35.3333 0 33.914 1.41938 33.914 3.1641V4.33599C33.914 4.37233 33.9156 4.40834 33.9168 4.44435C30.2366 1.56769 25.7137 0 21 0C15.3907 0 10.1171 2.18432 6.15076 6.15076C2.1844 10.1171 0 15.3907 0 21C0 24.5459 0.896106 28.0301 2.59603 31.1178C2.07612 31.6818 1.75784 32.4344 1.75784 33.2601V34.432C1.75784 34.8919 1.85726 35.3288 2.03453 35.7236C0.763052 36.6422 0 38.1056 0 39.7054V41.1797C0 41.6327 0.367252 42 0.820309 42H9.0234C9.47646 42 9.84371 41.6327 9.84371 41.1797V39.7054C9.84371 39.3746 9.81041 39.0498 9.74741 38.7341C13.0857 40.8587 16.9669 42 21 42C26.6093 42 31.8828 39.8157 35.8492 35.8492C39.8157 31.8829 42 26.6094 42 21C42 17.8461 41.2874 14.727 39.9307 11.9039H41.1797C41.6327 11.9039 42 11.5367 42 11.0836ZM35.5547 3.1641C35.5547 2.32402 36.2381 1.64062 37.0781 1.64062C37.9181 1.64062 38.6015 2.32402 38.6015 3.1641V4.33599C38.6015 5.17599 37.9181 5.85939 37.0781 5.85939C36.2381 5.85939 35.5547 5.17599 35.5547 4.33599V3.1641ZM40.3408 21.8203C40.1444 26.5067 38.2754 30.7679 35.315 34.0199C34.5709 33.3259 33.7827 32.6905 32.9531 32.116C34.2427 29.0438 34.9737 25.5149 35.0682 21.8203H40.3408ZM6.68437 7.98079C7.14998 8.4144 7.63708 8.82817 8.14026 9.21806C8.10515 9.40657 8.08587 9.60057 8.08587 9.79909V10.971C8.08587 11.4309 8.18529 11.8678 8.36256 12.2625C7.09116 13.1811 6.32803 14.6445 6.32803 16.2443V17.7187C6.32803 18.1271 6.62687 18.4648 7.01758 18.5276C6.97443 19.076 6.94548 19.628 6.93104 20.1797H1.65924C1.85562 15.4938 3.72437 11.2327 6.68437 7.98079ZM12.5206 6.90233C14.6194 3.86202 17.3377 2.02469 20.1798 1.72634V11.9584C18.2072 11.8756 16.2732 11.4944 14.4141 10.821V9.79917C14.414 8.50628 13.6342 7.39271 12.5206 6.90233ZM11.25 8.27569C12.09 8.27569 12.7734 8.95909 12.7734 9.79909V10.971C12.7734 11.811 12.09 12.4944 11.25 12.4944C10.41 12.4944 9.72649 11.811 9.72649 10.971V9.79909C9.72649 8.95909 10.41 8.27569 11.25 8.27569ZM9.40337 13.5379C9.92345 13.9131 10.5612 14.1351 11.25 14.1351C11.9392 14.1351 12.5772 13.9129 13.0975 13.5373C13.9914 14.1466 14.5312 15.1481 14.5312 16.2444V16.8984H7.96873V16.2444C7.96873 15.1657 8.51981 14.1465 9.40337 13.5379ZM8.6632 18.539H15.3515C15.8046 18.539 16.1718 18.1717 16.1718 17.7187V16.2444C16.1718 14.8308 15.5755 13.523 14.5591 12.6037C16.3807 13.192 18.2634 13.5258 20.1797 13.5999V20.1798H8.57256C8.58765 19.6314 8.61817 19.0832 8.6632 18.539ZM21.8203 1.72462C24.7721 2.02567 27.5411 3.94626 29.6906 7.21101C30.1179 7.86004 30.5106 8.54811 30.8686 9.26884C28.1306 10.8857 24.9996 11.8204 21.8203 11.9582V1.72462ZM10.7006 6.6838C9.97947 6.81062 9.34193 7.18214 8.87681 7.70968C8.52096 7.4238 8.17463 7.12504 7.84019 6.81521C9.53085 5.24563 11.5013 3.97399 13.6677 3.08403C12.5752 4.07226 11.5817 5.27647 10.7006 6.6838ZM6.9326 21.8203C6.94589 22.3248 6.97 22.8319 7.00741 23.3363C7.0394 23.7675 7.39911 24.096 7.8246 24.096C7.84503 24.096 7.86554 24.0953 7.88613 24.0937C8.33795 24.0602 8.67707 23.6667 8.64352 23.215C8.60915 22.7509 8.58667 22.2844 8.57371 21.8203H20.1797V28.4003C16.7279 28.5337 13.4002 29.5076 10.4559 31.22C10.3242 30.8939 10.1979 30.561 10.0779 30.2205C9.92722 29.7933 9.45866 29.5691 9.03152 29.7196C8.60431 29.8703 8.38003 30.3388 8.53064 30.766C8.69323 31.227 8.86656 31.6761 9.04941 32.1132C8.71242 32.3468 8.38225 32.5919 8.05798 32.846C7.85438 31.2964 6.52613 30.096 4.92194 30.096C4.5957 30.096 4.28087 30.1457 3.98449 30.2378C2.5793 27.6533 1.78343 24.7709 1.65867 21.8203H6.9326ZM31.5469 31.2235C30.7423 30.7568 29.9053 30.3414 29.0364 29.9816C28.728 29.8538 28.4173 29.7341 28.1049 29.6215H32.1295C31.9524 30.1684 31.758 30.7029 31.5469 31.2235ZM20.1797 40.2758C16.5976 39.9067 13.3045 37.135 11.129 32.7263C13.8619 31.1037 16.9616 30.1768 20.1797 30.0418V40.2758ZM21.8203 40.2754V30.0419C25.0541 30.1758 28.1461 31.0997 30.8732 32.7222C30.5139 33.4462 30.1197 34.1373 29.6906 34.7891C27.5411 38.0537 24.7721 39.9743 21.8203 40.2754ZM31.6641 27.9809H25.1016V27.327C25.1016 26.2483 25.6527 25.2291 26.5363 24.6204C27.0563 24.9956 27.6941 25.2176 28.3829 25.2176C29.0722 25.2176 29.7101 24.9954 30.2304 24.6198C31.1243 25.229 31.6641 26.2305 31.6641 27.3269V27.9809ZM29.9063 22.0535C29.9063 22.8935 29.2229 23.5769 28.3829 23.5769C27.5429 23.5769 26.8595 22.8935 26.8595 22.0535V20.8816C26.8595 20.0416 27.5429 19.3582 28.3829 19.3582C29.2229 19.3582 29.9063 20.0416 29.9063 20.8816V22.0535ZM25.4955 23.3451C24.2241 24.2637 23.461 25.7271 23.461 27.327V28.5275C22.9176 28.4637 22.3704 28.4216 21.8203 28.4004V21.8204H25.2188V22.0536C25.2188 22.5135 25.3183 22.9504 25.4955 23.3451ZM3.39846 34.432V33.2601C3.39846 32.4201 4.08194 31.7366 4.92194 31.7366C5.76193 31.7366 6.44533 32.4201 6.44533 33.2601V34.432C6.44533 35.2721 5.76193 35.9555 4.92194 35.9555C4.08194 35.9555 3.39846 35.2721 3.39846 34.432ZM8.03189 35.0108C8.58044 34.5157 9.15326 34.0549 9.74757 33.6296C10.8302 35.7729 12.1681 37.5634 13.681 38.9279C11.5968 38.0768 9.66136 36.8592 7.96151 35.3083C7.98965 35.211 8.01319 35.1118 8.03189 35.0108ZM31.0609 35.6912C31.4915 35.0373 31.8892 34.3473 32.2542 33.6269C32.9169 34.1024 33.5529 34.6224 34.1592 35.1853C32.4725 36.7511 30.5075 38.0203 28.3471 38.9098C29.3261 38.0189 30.2373 36.9423 31.0609 35.6912ZM33.0558 25.7766C32.7344 24.8056 32.1145 23.9552 31.2702 23.3452C31.4475 22.9504 31.547 22.5136 31.547 22.0536V21.8204H33.4272C33.3909 23.1695 33.2663 24.4936 33.0558 25.7766ZM31.4675 20.1797C31.1472 18.7719 29.8862 17.7176 28.3829 17.7176C26.8795 17.7176 25.6185 18.7719 25.2983 20.1797H21.8203V13.6003C25.2313 13.4641 28.5934 12.4812 31.5454 10.773C32.6866 13.5852 33.3365 16.8035 33.4271 20.1797H31.4675ZM32.3286 8.31433C32.3032 8.3327 32.2781 8.35149 32.2526 8.36978C31.888 7.6507 31.4909 6.96172 31.0609 6.30875C30.235 5.05425 29.321 3.97505 28.339 3.08264C30.201 3.84569 31.9448 4.90077 33.5061 6.2241C32.9462 6.81168 32.5418 7.52847 32.3286 8.31433ZM8.20309 40.3594H1.64062V39.7054C1.64062 38.6268 2.19178 37.6076 3.07526 36.9989C3.59533 37.3741 4.23304 37.5961 4.92186 37.5961C5.61116 37.5961 6.24912 37.3739 6.76936 36.9982C7.66333 37.6075 8.20309 38.609 8.20309 39.7054V40.3594ZM40.3414 20.1797H35.0681C34.9937 17.2709 34.5244 14.4653 33.6987 11.9039H38.092C39.4483 14.4479 40.2186 17.2862 40.3414 20.1797ZM40.3594 10.2633H33.7969V9.60935C33.7969 8.53072 34.3481 7.51149 35.2315 6.90282C35.7516 7.27803 36.3892 7.50001 37.0781 7.50001C37.7675 7.50001 38.4054 7.27778 38.9256 6.90216C39.8196 7.51141 40.3594 8.51292 40.3594 9.60935V10.2633Z" fill="#1A990F"/>
<path d="M8.32544 27.7537C8.7785 27.7537 9.14575 27.3864 9.14575 26.9333C9.14575 26.4803 8.7785 26.113 8.32544 26.113H8.32487C7.87181 26.113 7.50488 26.4803 7.50488 26.9333C7.50488 27.3864 7.87246 27.7537 8.32544 27.7537Z" fill="#1A990F"/>
</svg>
